<svg xmlns="http://www.w3.org/2000/svg" viewBox="0 0 13 12">
    <defs>
    <style type="text/css"><![CDATA[
       path {
         fill: #9A9DA2;
       }
    ]]></style>
    </defs><path d="M9.188 0a.242.242 0 00-.12.414l2.21 2.21H.301a.241.241 0 00.022.482h10.955l-2.21 2.21a.242.242 0 00.096.422.242.242 0 00.242-.083l2.624-2.617.165-.173-.165-.173L9.406.076A.242.242 0 009.21 0h-.022zM2.925 6.257a.238.238 0 00-.136.075L.165 8.948 0 9.12l.165.173L2.79 11.91a.242.242 0 00.422-.097.242.242 0 00-.083-.241l-2.21-2.21h10.954a.242.242 0 00.211-.12.243.243 0 000-.242.242.242 0 00-.211-.12H.917l2.21-2.21a.24.24 0 00.052-.282.24.24 0 00-.254-.132z"></path>
</svg>
