<svg id="svg" version="1.1" xmlns="http://www.w3.org/2000/svg" xmlns:xlink="http://www.w3.org/1999/xlink" width="400" height="400" viewBox="0, 0, 400,400"><g id="svgg"><path id="path0" d="M103.036 178.722 C 101.736 178.789,100.301 179.104,99.847 179.422 C 99.393 179.740,98.747 180.000,98.411 180.001 C 98.075 180.001,96.763 180.721,95.496 181.601 C 94.228 182.480,93.035 183.200,92.844 183.200 C 92.653 183.200,91.819 184.055,90.991 185.100 C 90.163 186.145,89.196 187.275,88.843 187.611 C 86.445 189.891,84.667 198.000,86.565 198.000 C 86.846 198.000,87.402 198.360,87.800 198.800 C 88.198 199.240,88.731 199.600,88.984 199.600 C 89.237 199.600,90.003 200.005,90.685 200.500 C 91.367 200.995,92.319 201.670,92.800 202.000 C 93.281 202.330,94.243 203.013,94.937 203.518 L 96.200 204.436 96.400 198.983 C 96.651 192.138,98.040 190.418,102.079 191.954 C 103.377 192.448,108.400 197.669,108.400 198.524 C 108.400 198.790,108.760 199.232,109.200 199.507 C 109.640 199.782,110.000 200.185,110.000 200.403 C 110.000 200.622,110.315 201.128,110.700 201.529 C 111.085 201.930,111.896 202.830,112.503 203.529 C 114.212 205.498,116.794 204.023,116.803 201.072 C 116.804 200.593,117.163 199.660,117.600 199.000 C 118.037 198.340,118.400 197.260,118.406 196.600 C 118.412 195.940,118.774 194.615,119.209 193.656 C 119.644 192.697,120.000 191.323,120.000 190.602 C 120.000 189.882,120.288 188.400,120.640 187.310 C 121.296 185.279,120.392 183.200,118.854 183.200 C 118.604 183.200,118.400 183.016,118.400 182.791 C 118.400 182.567,117.905 182.169,117.300 181.907 C 116.695 181.646,115.771 181.110,115.246 180.716 C 114.721 180.322,113.947 180.000,113.526 180.000 C 113.105 180.000,112.274 179.752,111.680 179.448 C 110.501 178.845,106.752 178.530,103.036 178.722 M146.758 187.105 C 145.028 187.460,144.967 191.734,146.657 194.189 C 146.956 194.623,147.200 195.256,147.200 195.595 C 147.200 195.934,147.560 196.884,148.000 197.704 C 148.440 198.525,148.800 199.425,148.800 199.704 C 148.800 199.984,149.160 200.884,149.600 201.704 C 150.040 202.525,150.401 203.513,150.403 203.899 C 150.404 204.284,150.763 205.140,151.200 205.800 C 151.637 206.460,151.996 207.369,151.997 207.820 C 151.999 208.271,152.183 208.823,152.407 209.047 C 153.376 210.016,153.557 211.928,152.766 212.839 C 152.345 213.325,152.000 214.046,152.000 214.441 C 152.000 215.835,149.572 217.640,147.800 217.562 C 144.633 217.424,144.400 217.505,144.400 218.745 C 144.400 221.174,152.400 221.323,154.671 218.937 C 155.960 217.582,158.548 212.407,159.040 210.200 C 159.187 209.540,159.533 208.730,159.809 208.400 C 160.085 208.070,160.441 207.170,160.600 206.400 C 160.759 205.630,161.119 204.730,161.400 204.400 C 161.681 204.070,162.041 203.170,162.200 202.400 C 162.359 201.630,162.716 200.730,162.994 200.400 C 163.272 200.070,163.616 199.143,163.760 198.340 C 163.904 197.537,164.286 196.660,164.611 196.391 C 164.935 196.122,165.200 195.516,165.200 195.045 C 165.200 194.574,165.560 193.516,166.000 192.696 C 167.642 189.633,167.002 187.600,164.396 187.600 C 163.209 187.600,161.200 190.822,161.200 192.726 C 161.200 193.153,160.939 193.719,160.620 193.984 C 160.300 194.249,159.921 195.255,159.776 196.220 C 159.631 197.185,159.263 198.182,158.957 198.436 C 158.650 198.690,158.400 199.314,158.400 199.823 C 158.400 201.777,156.570 204.800,155.386 204.800 C 154.911 204.800,153.438 201.067,152.845 198.360 C 152.671 197.568,152.230 196.493,151.865 195.971 C 151.499 195.449,151.200 194.521,151.200 193.910 C 151.200 193.298,150.840 192.125,150.400 191.304 C 149.960 190.484,149.599 189.449,149.597 189.006 C 149.595 188.112,147.777 186.895,146.758 187.105 M251.000 187.160 C 250.560 187.341,249.332 187.617,248.271 187.773 C 246.274 188.068,245.889 188.308,243.078 191.016 C 237.547 196.344,238.491 204.362,245.200 209.044 L 247.400 210.579 252.057 210.589 C 255.940 210.598,256.842 210.484,257.488 209.900 C 258.452 209.029,259.055 209.012,259.520 209.842 C 260.331 211.292,263.440 211.058,264.183 209.492 C 265.491 206.737,264.489 195.739,262.700 193.211 C 262.315 192.667,262.000 192.090,262.000 191.929 C 262.000 191.529,260.042 189.600,259.636 189.600 C 259.455 189.600,258.869 189.255,258.332 188.832 C 257.795 188.410,256.466 187.884,255.378 187.664 C 254.290 187.443,253.040 187.166,252.600 187.047 C 252.160 186.928,251.440 186.979,251.000 187.160 M304.000 187.686 C 302.790 187.901,301.428 188.420,300.974 188.839 C 300.520 189.257,299.964 189.600,299.738 189.600 C 299.513 189.600,299.123 190.050,298.873 190.600 C 298.622 191.150,298.233 191.600,298.009 191.600 C 297.784 191.600,297.600 191.832,297.600 192.115 C 297.600 192.399,297.240 193.337,296.800 194.200 C 295.765 196.230,295.623 203.189,296.600 204.000 C 296.930 204.274,297.200 204.721,297.200 204.994 C 297.200 205.781,299.401 208.341,301.026 209.443 C 303.854 211.363,312.330 211.457,314.696 209.596 C 315.253 209.158,315.954 208.800,316.254 208.800 C 316.554 208.800,316.800 208.613,316.800 208.384 C 316.800 208.155,317.205 207.419,317.700 206.749 L 318.600 205.531 317.656 204.766 L 316.712 204.001 314.074 206.100 C 311.461 208.179,311.404 208.201,308.279 208.344 L 305.124 208.488 303.162 206.399 C 301.458 204.584,301.200 204.089,301.200 202.635 C 301.200 200.048,301.330 200.005,309.180 199.960 C 318.282 199.908,318.167 199.943,318.324 197.201 C 318.453 194.945,317.206 191.679,315.674 190.261 C 315.303 189.918,314.611 189.285,314.136 188.855 C 313.603 188.372,312.197 187.906,310.460 187.636 C 307.282 187.143,307.042 187.145,304.000 187.686 M178.675 187.863 C 170.271 189.321,167.707 201.805,174.518 208.100 C 175.173 208.705,175.889 209.200,176.110 209.200 C 176.331 209.200,176.730 209.498,176.997 209.863 C 177.771 210.923,185.284 211.138,187.956 210.177 C 189.893 209.481,190.005 209.480,190.762 210.166 C 191.697 211.012,194.339 211.124,194.867 210.340 C 195.585 209.272,195.088 195.380,194.300 194.510 C 193.915 194.085,193.600 193.551,193.600 193.323 C 193.600 192.972,191.818 191.251,188.655 188.546 C 187.890 187.893,181.159 187.432,178.675 187.863 M200.448 187.962 C 199.705 188.433,200.197 192.424,201.238 194.366 C 201.657 195.148,202.001 196.241,202.003 196.794 C 202.004 197.347,202.363 198.340,202.800 199.000 C 203.237 199.660,203.596 200.585,203.597 201.056 C 203.599 201.527,203.956 202.697,204.391 203.656 C 204.826 204.615,205.186 205.884,205.191 206.476 C 205.196 207.068,205.398 207.675,205.641 207.825 C 205.883 207.975,206.336 208.706,206.646 209.449 C 206.957 210.192,207.478 210.800,207.805 210.800 C 208.132 210.800,208.400 210.980,208.400 211.200 C 208.400 212.447,211.924 210.992,212.275 209.600 C 212.413 209.050,212.747 208.240,213.016 207.800 C 213.285 207.360,213.621 206.222,213.762 205.272 C 213.903 204.321,214.263 203.151,214.562 202.672 C 214.861 202.192,215.225 200.998,215.371 200.018 C 216.033 195.565,219.200 194.041,219.200 198.175 C 219.200 198.740,219.560 199.875,220.000 200.696 C 220.440 201.516,220.806 202.821,220.813 203.594 C 220.820 204.367,221.077 205.332,221.384 205.737 C 221.691 206.142,222.061 207.176,222.206 208.034 C 222.912 212.214,229.200 211.820,229.200 207.595 C 229.200 207.031,229.546 205.891,229.969 205.061 C 230.392 204.232,230.856 202.854,231.000 202.000 C 231.144 201.145,231.518 200.234,231.831 199.974 C 232.144 199.714,232.400 199.022,232.400 198.436 C 232.400 197.849,232.760 196.663,233.200 195.800 C 233.640 194.937,234.000 193.763,234.000 193.192 C 234.000 192.620,234.264 191.804,234.587 191.376 C 235.749 189.840,235.379 188.070,233.835 187.780 C 231.334 187.311,230.005 188.401,229.998 190.926 C 229.996 191.407,229.744 192.280,229.438 192.867 C 229.132 193.454,228.756 194.714,228.602 195.667 C 228.449 196.620,228.086 197.775,227.796 198.233 C 227.506 198.692,227.144 199.898,226.992 200.915 C 226.363 205.106,223.996 204.427,223.160 199.817 C 222.923 198.506,222.475 197.071,222.164 196.628 C 221.854 196.185,221.596 195.277,221.591 194.611 C 221.586 193.945,221.226 192.615,220.791 191.656 C 220.356 190.697,220.000 189.579,220.000 189.170 C 220.000 188.248,218.845 187.600,217.200 187.600 C 215.529 187.600,214.400 188.251,214.400 189.216 C 214.400 189.649,214.040 190.675,213.600 191.496 C 213.160 192.316,212.800 193.626,212.800 194.405 C 212.800 195.184,212.555 196.177,212.255 196.611 C 211.955 197.045,211.578 198.300,211.416 199.400 C 210.759 203.856,207.606 205.197,207.598 201.024 C 207.596 200.351,207.313 199.260,206.967 198.600 C 206.622 197.940,206.159 196.427,205.938 195.237 C 205.717 194.048,205.298 192.698,205.007 192.237 C 204.715 191.777,204.357 190.653,204.210 189.739 C 203.896 187.785,202.082 186.927,200.448 187.962 M269.900 187.876 C 268.901 188.137,268.963 191.034,270.000 192.600 C 270.437 193.260,270.796 194.273,270.797 194.851 C 270.799 195.429,271.058 196.117,271.374 196.379 C 271.690 196.641,272.071 197.413,272.221 198.094 C 272.370 198.776,272.831 199.888,273.245 200.567 C 273.659 201.245,273.998 202.077,273.999 202.415 C 273.999 202.754,274.360 203.737,274.800 204.600 C 275.240 205.463,275.600 206.418,275.600 206.721 C 275.600 207.025,275.960 207.731,276.400 208.291 C 276.840 208.850,277.200 209.534,277.200 209.811 C 277.200 210.714,280.781 211.244,281.800 210.493 C 282.433 210.026,284.000 206.916,284.003 206.121 C 284.004 205.724,284.363 204.860,284.800 204.200 C 285.237 203.540,285.596 202.619,285.597 202.154 C 285.599 201.689,285.934 200.879,286.342 200.354 C 286.750 199.829,287.208 198.725,287.360 197.900 C 287.512 197.075,287.800 196.400,288.000 196.400 C 288.200 196.400,288.490 195.725,288.645 194.900 C 288.799 194.075,289.269 192.935,289.689 192.366 C 290.906 190.719,290.556 187.841,289.120 187.675 C 287.638 187.504,286.401 188.249,286.397 189.314 C 286.396 189.801,286.037 190.740,285.600 191.400 C 285.163 192.060,284.804 192.963,284.803 193.406 C 284.801 193.849,284.440 194.884,284.000 195.704 C 283.560 196.525,283.200 197.635,283.200 198.170 C 283.200 198.705,282.939 199.404,282.620 199.723 C 282.301 200.042,281.924 200.820,281.783 201.452 C 281.267 203.757,281.132 204.000,280.373 204.000 C 279.147 204.000,278.081 202.612,277.783 200.629 C 277.633 199.623,277.357 198.800,277.170 198.800 C 276.983 198.800,276.639 198.035,276.404 197.100 C 276.169 196.165,275.712 194.922,275.388 194.338 C 275.065 193.754,274.800 192.916,274.800 192.475 C 274.800 189.498,272.381 187.227,269.900 187.876 M311.466 191.500 C 312.859 192.767,313.953 196.206,313.202 196.959 C 312.588 197.575,303.110 197.794,302.033 197.218 C 300.404 196.346,301.333 193.513,304.011 191.191 C 305.522 189.880,309.883 190.061,311.466 191.500 M254.452 191.600 C 255.451 191.600,258.400 193.475,258.400 194.110 C 258.400 194.331,258.715 194.742,259.100 195.024 C 260.075 195.739,260.138 202.612,259.175 203.332 C 258.832 203.590,258.432 204.115,258.288 204.500 C 258.143 204.885,257.814 205.200,257.557 205.200 C 257.299 205.200,256.873 205.494,256.610 205.853 C 256.348 206.213,255.248 206.643,254.166 206.809 C 245.246 208.182,240.304 199.163,246.672 193.132 C 247.941 191.929,251.822 190.768,252.874 191.275 C 253.244 191.454,253.955 191.600,254.452 191.600 M185.191 191.632 C 186.176 191.859,187.308 192.395,187.707 192.823 C 188.105 193.250,188.563 193.600,188.724 193.600 C 190.725 193.600,191.582 200.438,189.902 203.000 C 186.688 207.900,177.645 208.554,176.197 203.991 C 176.072 203.597,175.706 203.173,175.385 203.050 C 174.359 202.656,174.583 196.782,175.688 195.118 C 177.901 191.786,180.970 190.660,185.191 191.632 M125.437 197.072 C 125.278 197.772,124.890 198.559,124.574 198.821 C 124.258 199.083,124.000 199.636,124.000 200.049 C 124.000 200.462,123.640 201.160,123.200 201.600 C 122.760 202.040,122.400 202.646,122.400 202.946 C 122.400 203.246,122.085 203.923,121.700 204.451 C 121.315 204.978,120.820 205.697,120.600 206.048 C 117.182 211.512,114.266 213.204,112.350 210.837 C 111.977 210.377,111.476 210.000,111.236 210.000 C 110.996 210.000,110.800 209.852,110.800 209.672 C 110.800 209.492,110.244 208.727,109.564 207.972 C 108.884 207.217,107.669 205.611,106.864 204.403 C 106.059 203.195,105.130 201.917,104.800 201.564 C 104.470 201.211,103.856 200.439,103.435 199.849 C 101.987 197.819,101.026 200.031,100.542 206.506 C 100.038 213.239,98.230 213.277,91.811 206.689 C 89.350 204.164,86.946 201.973,86.469 201.822 C 85.991 201.670,85.600 201.368,85.600 201.149 C 85.600 200.931,85.448 200.847,85.262 200.962 C 85.076 201.076,84.812 203.652,84.675 206.685 C 84.538 209.718,84.172 213.497,83.863 215.083 C 83.553 216.669,83.397 218.064,83.516 218.183 C 84.249 218.915,111.056 218.376,112.504 217.600 C 113.325 217.160,114.259 216.800,114.579 216.800 C 114.899 216.800,115.304 216.554,115.480 216.254 C 115.656 215.954,116.340 215.412,117.000 215.049 C 119.537 213.655,121.556 211.898,121.587 211.058 C 121.594 210.870,122.005 210.211,122.500 209.594 C 124.503 207.097,124.800 206.600,124.800 205.747 C 124.800 205.258,125.040 204.617,125.334 204.323 C 126.001 203.656,126.499 198.610,126.055 197.000 L 125.725 195.800 125.437 197.072 " stroke="none" fill="#f7fafb" fill-rule="evenodd"></path><path id="path1" d="M0.000 200.000 L 0.000 400.000 200.000 400.000 L 400.000 400.000 400.000 200.000 L 400.000 0.000 200.000 0.000 L 0.000 0.000 0.000 200.000 M110.296 177.549 C 112.051 177.743,113.482 178.131,113.927 178.534 C 114.332 178.900,115.054 179.200,115.531 179.200 C 116.009 179.200,116.760 179.560,117.200 180.000 C 117.640 180.440,118.197 180.800,118.438 180.800 C 118.679 180.800,119.686 181.565,120.676 182.500 L 122.476 184.200 122.308 187.232 C 122.200 189.190,121.903 190.604,121.470 191.221 C 121.074 191.787,120.800 192.947,120.800 194.060 C 120.800 195.158,120.562 196.181,120.229 196.514 C 119.915 196.828,119.533 197.786,119.380 198.643 C 119.228 199.499,118.765 200.761,118.351 201.447 C 117.938 202.133,117.600 202.998,117.600 203.369 C 117.600 204.679,115.495 206.800,114.200 206.795 C 113.071 206.790,108.800 202.459,108.800 201.318 C 108.800 201.131,108.485 200.687,108.100 200.332 C 107.715 199.978,106.680 198.817,105.800 197.753 C 104.352 196.004,103.474 195.095,101.566 193.372 C 99.532 191.535,98.430 193.792,98.370 199.920 C 98.312 205.732,97.059 207.355,94.334 205.147 C 91.177 202.588,90.268 202.698,92.811 205.331 C 93.697 206.249,94.732 207.335,95.111 207.744 C 98.253 211.138,99.600 209.896,99.600 203.608 C 99.600 197.223,101.218 195.026,103.802 197.900 C 104.346 198.505,105.243 199.504,105.795 200.121 C 106.348 200.737,106.800 201.459,106.800 201.724 C 106.800 201.990,107.160 202.432,107.600 202.707 C 108.040 202.982,108.400 203.385,108.400 203.603 C 108.400 203.822,108.677 204.315,109.015 204.700 C 110.496 206.388,111.600 207.949,111.600 208.358 C 111.600 208.601,111.858 208.800,112.173 208.800 C 112.488 208.800,112.860 209.160,113.000 209.600 C 113.248 210.382,115.600 210.825,115.600 210.089 C 115.600 209.918,116.183 209.153,116.895 208.389 C 118.323 206.858,118.875 206.042,119.795 204.100 C 120.134 203.385,120.588 202.800,120.805 202.800 C 121.022 202.800,121.200 202.464,121.200 202.054 C 121.200 201.644,121.549 200.864,121.975 200.322 C 122.402 199.780,122.872 198.854,123.020 198.263 C 123.168 197.673,123.506 197.057,123.770 196.895 C 124.034 196.733,124.426 195.971,124.640 195.203 C 125.151 193.366,126.091 193.242,127.243 194.861 C 128.283 196.321,128.554 200.006,127.686 200.874 C 127.419 201.141,127.197 202.179,127.194 203.180 C 127.191 204.181,126.929 205.450,126.611 206.000 C 126.294 206.550,125.850 207.408,125.625 207.906 C 125.060 209.156,123.504 211.333,122.900 211.720 C 122.625 211.896,122.400 212.244,122.400 212.494 C 122.400 213.116,120.774 214.800,120.173 214.800 C 119.905 214.800,119.582 215.070,119.455 215.400 C 119.329 215.730,118.977 216.000,118.675 216.000 C 118.372 216.000,117.798 216.360,117.400 216.800 C 117.002 217.240,116.458 217.600,116.192 217.600 C 115.926 217.600,115.250 217.960,114.691 218.400 C 114.131 218.840,113.321 219.200,112.889 219.200 C 112.457 219.200,110.977 219.560,109.600 220.000 C 105.569 221.288,83.455 221.224,82.759 219.923 C 81.213 217.035,83.235 199.638,85.124 199.579 C 85.671 199.562,85.628 199.438,84.900 198.930 C 83.820 198.177,83.579 193.586,84.546 192.189 C 84.846 191.755,85.221 190.987,85.378 190.483 C 86.283 187.584,91.584 181.417,93.600 180.918 C 94.150 180.782,94.835 180.340,95.123 179.935 C 95.410 179.531,95.995 179.200,96.423 179.200 C 96.850 179.200,97.200 179.038,97.200 178.839 C 97.200 178.239,99.590 177.600,101.836 177.600 C 103.000 177.600,104.075 177.403,104.224 177.162 C 104.389 176.894,105.059 176.822,105.947 176.976 C 106.746 177.116,108.703 177.373,110.296 177.549 M149.691 186.300 C 150.029 186.685,150.424 187.389,150.568 187.864 C 150.713 188.339,151.094 188.946,151.415 189.213 C 151.737 189.480,152.000 190.174,152.000 190.755 C 152.000 191.336,152.360 192.484,152.800 193.304 C 153.240 194.125,153.600 195.205,153.600 195.704 C 153.600 196.204,153.960 197.284,154.400 198.104 C 154.840 198.925,155.201 200.183,155.202 200.899 L 155.204 202.200 156.166 201.000 C 156.695 200.340,157.242 199.085,157.383 198.210 C 157.523 197.336,157.875 196.346,158.165 196.010 C 158.455 195.675,158.802 194.681,158.937 193.801 C 159.071 192.922,159.456 192.002,159.791 191.757 C 160.126 191.512,160.400 190.779,160.400 190.129 C 160.400 187.997,162.649 185.600,164.650 185.600 C 166.851 185.600,168.600 187.435,168.247 189.373 C 168.124 190.048,167.903 191.319,167.756 192.198 C 167.610 193.078,167.258 194.158,166.974 194.598 C 166.691 195.039,166.333 196.089,166.179 196.932 C 166.025 197.774,165.670 198.552,165.391 198.659 C 165.111 198.766,164.765 199.637,164.622 200.594 C 164.478 201.551,164.114 202.540,163.812 202.790 C 163.510 203.041,163.143 203.956,162.996 204.823 C 162.850 205.690,162.503 206.535,162.226 206.700 C 161.948 206.865,161.612 207.697,161.478 208.550 C 161.344 209.402,160.979 210.392,160.668 210.750 C 160.356 211.107,159.984 212.058,159.840 212.861 C 159.696 213.665,159.313 214.424,158.989 214.549 C 158.665 214.673,158.400 215.260,158.400 215.854 C 158.400 216.447,158.131 217.218,157.802 217.566 C 157.473 217.915,156.737 218.785,156.167 219.500 C 155.596 220.215,154.948 220.800,154.728 220.800 C 154.507 220.800,153.869 221.160,153.309 221.600 C 150.153 224.083,143.208 222.133,143.203 218.762 C 143.199 215.926,144.139 215.353,149.014 215.222 C 151.005 215.168,151.926 210.504,150.400 208.200 C 149.963 207.540,149.604 206.578,149.603 206.063 C 149.601 205.548,149.240 204.669,148.800 204.109 C 148.360 203.550,148.000 202.650,148.000 202.109 C 148.000 201.569,147.640 200.669,147.200 200.109 C 146.760 199.550,146.400 198.756,146.400 198.345 C 146.400 197.933,146.040 196.925,145.600 196.104 C 145.160 195.284,144.800 194.226,144.800 193.755 C 144.800 193.284,144.535 192.678,144.211 192.409 C 142.986 191.392,142.946 187.200,144.161 187.200 C 144.461 187.200,144.801 186.840,144.916 186.400 C 145.200 185.312,148.758 185.237,149.691 186.300 M189.070 187.258 C 190.901 188.169,192.400 189.056,192.400 189.229 C 192.400 189.402,192.715 189.858,193.100 190.243 C 194.996 192.138,196.000 193.787,196.000 195.006 C 196.000 195.719,196.270 196.526,196.600 196.800 C 197.085 197.203,197.200 198.463,197.200 203.389 L 197.200 209.480 195.997 211.140 C 194.675 212.965,191.105 213.659,190.545 212.200 C 190.248 211.426,188.053 211.434,187.024 212.213 C 186.489 212.617,185.236 212.800,183.000 212.800 C 180.764 212.800,179.511 212.617,178.976 212.213 C 178.549 211.890,177.850 211.620,177.422 211.613 C 175.442 211.580,170.039 206.544,169.986 204.682 C 169.979 204.417,169.625 203.480,169.200 202.600 C 168.775 201.720,168.427 200.190,168.427 199.200 C 168.427 198.210,168.775 196.680,169.200 195.800 C 169.625 194.920,169.979 193.913,169.986 193.562 C 169.994 193.211,170.360 192.598,170.800 192.200 C 171.240 191.802,171.600 191.270,171.600 191.019 C 171.600 190.768,172.140 190.121,172.799 189.581 C 173.458 189.042,174.386 188.285,174.860 187.900 C 175.334 187.515,175.923 187.200,176.167 187.200 C 176.412 187.200,177.240 186.850,178.006 186.423 C 180.664 184.941,185.086 185.275,189.070 187.258 M203.912 186.507 C 205.273 187.956,206.800 191.132,206.803 192.521 C 206.804 193.225,207.163 194.340,207.600 195.000 C 208.119 195.783,208.396 196.877,208.397 198.149 C 208.401 201.194,210.071 199.924,210.497 196.552 C 210.660 195.258,211.035 194.020,211.331 193.800 C 211.627 193.580,211.980 192.457,212.115 191.304 C 212.251 190.151,212.547 188.981,212.775 188.704 C 213.002 188.427,213.657 187.615,214.230 186.900 C 215.885 184.834,220.800 185.438,220.800 187.707 C 220.800 187.909,221.160 188.531,221.600 189.091 C 222.057 189.672,222.400 190.714,222.400 191.522 C 222.400 192.300,222.683 193.250,223.030 193.633 C 223.376 194.015,223.795 195.332,223.962 196.558 C 224.135 197.834,224.593 199.151,225.032 199.638 L 225.800 200.488 226.059 198.421 C 226.202 197.284,226.584 196.049,226.908 195.677 C 227.233 195.304,227.590 194.138,227.702 193.084 C 227.814 192.030,228.197 190.846,228.553 190.452 C 228.909 190.059,229.200 189.290,229.200 188.743 C 229.200 186.107,233.182 184.660,235.338 186.513 C 236.736 187.714,236.885 191.859,235.600 193.800 C 235.163 194.460,234.803 195.450,234.800 196.000 C 234.797 196.550,234.437 197.540,234.000 198.200 C 233.563 198.860,233.204 200.053,233.203 200.851 C 233.201 201.649,232.950 202.510,232.643 202.764 C 232.337 203.018,231.969 204.015,231.824 204.980 C 231.679 205.945,231.318 206.936,231.022 207.182 C 230.726 207.427,230.362 208.279,230.212 209.074 C 228.908 216.030,220.962 213.417,219.831 205.660 C 219.692 204.704,219.313 203.656,218.989 203.332 C 218.665 203.008,218.387 202.171,218.372 201.471 C 218.327 199.447,217.800 198.342,217.432 199.500 C 217.275 199.995,217.001 200.400,216.825 200.400 C 216.648 200.400,216.383 201.464,216.236 202.764 C 216.089 204.064,215.706 205.346,215.384 205.613 C 215.063 205.880,214.797 206.571,214.794 207.149 C 214.791 207.727,214.529 208.650,214.211 209.200 C 213.894 209.750,213.465 210.567,213.259 211.016 C 211.453 214.943,205.239 212.954,204.176 208.108 C 204.043 207.499,203.687 206.460,203.385 205.800 C 203.084 205.140,202.734 203.943,202.608 203.140 C 202.482 202.337,202.114 201.460,201.789 201.191 C 201.465 200.922,201.200 200.226,201.200 199.645 C 201.200 199.064,200.840 197.916,200.400 197.096 C 199.960 196.275,199.600 195.046,199.600 194.365 C 199.600 193.683,199.240 192.669,198.800 192.109 C 196.090 188.664,200.943 183.346,203.912 186.507 M257.860 186.684 C 259.037 187.280,260.000 187.910,260.000 188.084 C 260.000 188.258,260.254 188.400,260.564 188.400 C 260.875 188.400,261.596 188.985,262.167 189.700 C 262.737 190.415,263.459 191.271,263.770 191.603 C 264.082 191.935,264.469 192.745,264.631 193.403 C 264.794 194.061,265.213 195.042,265.563 195.582 C 266.083 196.384,266.200 197.832,266.200 203.469 L 266.200 210.374 264.800 211.571 C 263.193 212.945,261.468 213.144,260.012 212.123 C 258.944 211.375,256.396 211.359,255.940 212.098 C 255.457 212.878,250.648 212.983,249.169 212.245 C 248.459 211.890,247.366 211.600,246.742 211.600 C 246.040 211.600,245.416 211.295,245.107 210.800 C 244.832 210.360,244.282 210.000,243.883 210.000 C 243.070 210.000,240.536 207.428,240.141 206.202 C 239.999 205.762,239.612 205.204,239.280 204.961 C 238.913 204.694,238.602 203.631,238.488 202.260 C 238.385 201.017,238.143 200.000,237.950 200.000 C 237.495 200.000,237.494 198.513,237.950 198.231 C 238.142 198.112,238.383 197.005,238.486 195.771 C 238.588 194.536,238.856 193.408,239.080 193.263 C 239.305 193.118,239.788 192.415,240.154 191.700 C 240.521 190.985,240.984 190.400,241.183 190.400 C 241.383 190.400,241.647 190.083,241.769 189.696 C 241.995 188.987,242.184 188.854,245.033 187.400 C 245.895 186.960,246.838 186.375,247.129 186.100 C 248.228 185.060,255.427 185.452,257.860 186.684 M273.815 186.700 C 274.982 187.926,275.600 189.235,275.600 190.482 C 275.600 190.938,275.882 191.518,276.227 191.770 C 276.571 192.022,276.960 193.032,277.091 194.014 C 277.222 194.996,277.574 195.981,277.874 196.201 C 278.173 196.422,278.529 197.322,278.663 198.201 C 279.083 200.941,280.800 202.089,280.800 199.630 C 280.800 199.013,281.160 198.050,281.600 197.491 C 282.040 196.931,282.400 196.097,282.400 195.635 C 282.400 195.174,282.760 194.125,283.200 193.304 C 283.640 192.484,284.000 191.388,284.000 190.869 C 284.000 190.350,284.360 189.469,284.800 188.909 C 285.240 188.350,285.600 187.657,285.600 187.369 C 285.600 186.521,287.267 185.600,288.800 185.600 C 291.439 185.600,293.627 189.684,291.800 191.200 C 291.470 191.474,291.200 192.192,291.200 192.795 C 291.200 193.398,290.840 194.350,290.400 194.909 C 289.960 195.469,289.600 196.279,289.600 196.709 C 289.600 197.140,289.240 197.950,288.800 198.509 C 288.360 199.069,287.999 199.948,287.997 200.463 C 287.996 200.978,287.637 201.940,287.200 202.600 C 286.763 203.260,286.403 204.160,286.400 204.600 C 286.397 205.040,286.037 205.940,285.600 206.600 C 285.163 207.260,284.804 208.165,284.803 208.611 C 284.801 209.057,284.485 209.726,284.100 210.098 C 283.715 210.470,282.954 211.230,282.408 211.787 C 280.750 213.482,276.000 212.578,276.000 210.568 C 276.000 210.302,275.747 209.988,275.438 209.870 C 275.128 209.751,274.748 209.057,274.593 208.327 C 274.438 207.597,274.081 206.730,273.800 206.400 C 273.519 206.070,273.159 205.170,273.000 204.400 C 272.841 203.630,272.481 202.730,272.200 202.400 C 271.919 202.070,271.557 201.180,271.396 200.423 C 271.234 199.665,270.854 198.797,270.551 198.494 C 270.248 198.191,270.000 197.530,270.000 197.025 C 270.000 196.521,269.640 195.650,269.200 195.091 C 268.760 194.531,268.399 193.742,268.398 193.337 C 268.396 192.932,268.126 192.084,267.798 191.454 C 265.812 187.646,270.893 183.631,273.815 186.700 M312.600 186.400 C 313.260 186.837,314.035 187.196,314.321 187.197 C 315.021 187.201,317.600 189.284,317.600 189.846 C 317.600 190.091,317.937 190.721,318.348 191.246 C 318.759 191.771,319.220 192.830,319.373 193.600 C 319.525 194.370,319.840 195.493,320.071 196.095 C 320.559 197.362,319.226 200.800,318.247 200.800 C 317.945 200.800,317.474 201.070,317.200 201.400 C 316.791 201.892,315.420 202.000,309.551 202.000 C 305.618 202.000,302.400 202.052,302.400 202.115 C 302.400 202.745,304.153 205.381,305.105 206.182 C 306.367 207.243,310.400 207.705,310.400 206.787 C 310.400 206.561,310.715 206.258,311.100 206.115 C 311.485 205.971,312.622 205.167,313.626 204.327 C 315.721 202.574,318.564 202.145,319.105 203.500 C 319.693 204.972,319.350 207.601,318.461 208.429 C 317.988 208.870,317.600 209.404,317.600 209.616 C 317.600 209.827,317.420 210.000,317.200 210.000 C 316.980 210.000,316.440 210.360,316.000 210.800 C 315.560 211.240,314.772 211.600,314.249 211.600 C 313.726 211.600,313.074 211.870,312.800 212.200 C 312.122 213.017,305.076 213.043,303.527 212.235 C 302.937 211.927,301.902 211.554,301.227 211.406 C 300.552 211.258,300.000 210.967,300.000 210.760 C 300.000 210.552,299.550 210.178,299.000 209.927 C 298.450 209.677,298.000 209.274,298.000 209.032 C 298.000 208.790,297.640 208.368,297.200 208.093 C 296.760 207.818,296.400 207.398,296.400 207.160 C 296.400 206.921,296.040 206.269,295.600 205.709 C 295.009 204.957,294.800 204.086,294.800 202.370 C 294.800 201.092,294.627 199.940,294.415 199.809 C 294.169 199.657,294.169 199.208,294.415 198.560 C 294.627 198.003,294.800 196.684,294.800 195.628 C 294.800 194.314,295.052 193.387,295.600 192.691 C 296.040 192.131,296.400 191.487,296.400 191.260 C 296.400 191.032,296.727 190.610,297.126 190.323 C 297.526 190.035,297.970 189.485,298.114 189.100 C 298.257 188.715,298.631 188.400,298.945 188.400 C 299.258 188.400,299.612 188.147,299.730 187.838 C 299.849 187.528,300.486 187.157,301.145 187.012 C 301.805 186.867,302.559 186.490,302.821 186.174 C 303.623 185.209,311.061 185.380,312.600 186.400 M305.480 192.118 C 304.479 192.699,303.881 193.378,303.729 194.108 C 303.601 194.718,303.337 195.315,303.142 195.436 C 302.128 196.062,303.698 196.400,307.624 196.400 L 312.000 196.400 312.000 195.421 C 312.000 194.433,310.454 192.400,309.703 192.400 C 309.480 192.400,309.074 192.130,308.800 191.800 C 308.127 190.989,307.286 191.069,305.480 192.118 M178.500 194.354 C 177.565 195.208,176.800 196.266,176.800 196.705 C 176.800 197.143,176.530 197.726,176.200 198.000 C 175.060 198.946,176.843 203.188,178.809 204.205 C 179.464 204.543,180.000 204.996,180.000 205.210 C 180.000 205.425,181.162 205.600,182.583 205.600 C 186.961 205.600,189.362 202.612,188.887 197.752 C 188.732 196.170,188.460 195.766,186.100 193.619 C 184.406 192.077,180.586 192.447,178.500 194.354 M248.702 193.500 C 248.330 193.885,247.592 194.624,247.060 195.141 C 245.299 196.857,245.327 201.909,247.106 203.388 C 247.644 203.834,248.425 204.515,248.842 204.900 C 249.951 205.924,253.739 205.864,255.091 204.800 C 255.650 204.360,256.354 204.000,256.654 204.000 C 256.954 204.000,257.200 203.754,257.200 203.454 C 257.200 203.154,257.560 202.450,258.000 201.891 C 259.481 200.008,258.419 194.489,256.562 194.417 C 256.321 194.408,255.798 194.040,255.400 193.600 C 254.410 192.506,249.729 192.436,248.702 193.500 " stroke="none" fill="#0494dc" fill-rule="evenodd"></path><path id="path2" d="M104.100 177.891 C 104.925 177.978,106.275 177.978,107.100 177.891 C 107.925 177.805,107.250 177.734,105.600 177.734 C 103.950 177.734,103.275 177.805,104.100 177.891 M98.400 178.676 C 96.382 179.624,90.705 183.409,90.000 184.278 C 84.996 190.438,82.929 197.380,85.700 198.714 C 86.957 199.319,87.121 199.878,86.100 200.079 C 85.583 200.180,85.878 200.546,87.232 201.480 C 88.239 202.175,90.039 203.789,91.232 205.066 C 94.850 208.939,96.946 210.800,97.691 210.800 C 99.016 210.800,100.006 209.343,99.933 207.500 L 99.866 205.800 99.703 207.400 C 99.531 209.098,98.658 210.400,97.692 210.400 C 97.370 210.400,95.103 208.375,92.653 205.900 C 90.203 203.425,87.839 201.186,87.399 200.924 C 86.650 200.477,86.670 200.446,87.717 200.424 C 88.331 200.411,89.220 200.760,89.692 201.200 C 90.164 201.640,90.787 202.000,91.075 202.000 C 91.364 202.000,91.600 202.142,91.600 202.315 C 91.600 202.893,95.974 205.585,96.552 205.363 C 97.386 205.043,97.588 203.871,97.595 199.323 C 97.599 195.937,97.742 194.988,98.440 193.723 L 99.281 192.200 98.240 193.322 C 97.245 194.396,97.200 194.644,97.200 199.049 C 97.200 205.931,96.960 206.107,92.400 202.574 C 90.194 200.866,88.525 199.794,86.100 198.530 C 82.647 196.729,87.406 185.887,93.279 182.175 C 94.446 181.438,95.617 180.647,95.882 180.418 C 96.371 179.996,99.940 178.610,101.400 178.276 C 101.936 178.153,101.805 178.081,101.000 178.056 C 100.340 178.035,99.170 178.314,98.400 178.676 M110.400 178.391 C 111.170 178.555,112.307 178.895,112.926 179.145 C 114.836 179.917,115.104 179.630,113.256 178.791 C 112.297 178.356,110.947 178.021,110.256 178.046 L 109.000 178.092 110.400 178.391 M116.400 180.600 C 117.145 181.150,117.863 181.600,117.994 181.600 C 118.125 181.600,119.015 182.308,119.971 183.174 C 121.846 184.871,121.833 184.794,121.011 189.400 L 120.797 190.600 121.380 189.400 C 122.791 186.499,120.671 181.200,118.099 181.200 C 117.892 181.200,117.307 180.840,116.800 180.400 C 116.293 179.960,115.690 179.600,115.461 179.600 C 115.232 179.600,115.655 180.050,116.400 180.600 M144.700 187.290 C 143.391 188.816,143.330 189.708,144.400 191.704 C 144.840 192.525,145.200 193.547,145.200 193.975 C 145.200 194.403,145.375 194.861,145.590 194.994 C 145.804 195.126,146.236 196.082,146.549 197.117 C 146.862 198.153,147.406 199.540,147.757 200.200 C 148.108 200.860,148.396 201.693,148.398 202.051 C 148.399 202.409,148.670 202.926,149.000 203.200 C 149.330 203.474,149.621 204.081,149.646 204.549 C 149.680 205.164,149.741 205.217,149.868 204.739 C 149.965 204.376,149.674 203.388,149.222 202.545 C 148.770 201.702,148.400 200.734,148.400 200.395 C 148.400 200.056,148.168 199.423,147.885 198.989 C 147.602 198.555,146.994 197.210,146.534 196.000 C 143.919 189.126,143.878 188.840,145.305 187.300 C 146.886 185.594,149.431 186.581,150.203 189.200 C 150.365 189.750,150.646 190.387,150.828 190.616 C 151.010 190.844,151.340 191.744,151.563 192.616 C 152.276 195.411,155.313 204.000,155.587 204.000 C 155.973 204.000,157.452 201.231,157.939 199.600 C 158.169 198.830,158.831 196.940,159.412 195.400 C 159.992 193.860,160.709 191.848,161.006 190.928 C 162.189 187.257,163.829 185.977,165.976 187.048 C 167.491 187.804,167.687 190.736,166.400 193.400 C 165.975 194.280,165.621 195.226,165.614 195.501 C 165.606 195.777,165.240 196.675,164.800 197.496 C 164.360 198.316,164.000 199.216,164.000 199.496 C 164.000 199.775,163.640 200.675,163.200 201.496 C 162.760 202.316,162.399 203.171,162.398 203.394 C 162.397 203.617,161.408 206.230,160.200 209.200 C 158.992 212.170,158.000 214.780,157.995 215.000 C 157.983 215.498,156.075 218.334,155.000 219.452 C 152.638 221.908,145.402 222.171,143.906 219.855 C 143.689 219.519,143.611 219.522,143.606 219.867 C 143.581 221.815,149.725 222.692,152.985 221.207 C 155.016 220.282,157.863 217.138,158.240 215.404 C 158.384 214.742,158.749 213.845,159.051 213.411 C 159.353 212.977,159.600 212.344,159.600 212.005 C 159.600 211.666,159.960 210.716,160.400 209.896 C 160.840 209.075,161.201 208.177,161.202 207.901 C 161.204 207.626,161.454 206.922,161.759 206.339 C 162.063 205.755,162.532 204.613,162.800 203.800 C 163.068 202.987,163.537 201.845,163.841 201.261 C 164.146 200.678,164.397 199.930,164.400 199.600 C 164.403 199.270,164.763 198.460,165.200 197.800 C 165.637 197.140,165.996 196.235,165.997 195.789 C 165.999 195.343,166.296 194.556,166.657 194.040 C 168.771 191.022,167.371 186.000,164.416 186.000 C 163.377 186.000,161.253 188.212,160.959 189.600 C 160.842 190.150,160.423 191.410,160.028 192.400 C 159.105 194.710,158.474 196.505,157.708 199.000 C 157.370 200.100,156.722 201.529,156.267 202.175 L 155.439 203.349 154.956 201.575 C 154.424 199.623,153.891 198.031,152.752 194.992 C 152.339 193.888,152.000 192.752,152.000 192.467 C 152.000 191.754,150.021 187.556,149.281 186.700 C 148.244 185.500,145.987 185.790,144.700 187.290 M178.433 186.872 C 168.874 190.248,166.123 201.278,173.089 208.298 C 174.019 209.234,175.039 210.000,175.356 210.000 C 175.674 210.000,175.999 210.196,176.079 210.436 C 176.557 211.870,183.585 212.563,187.536 211.566 C 189.446 211.084,189.800 211.100,190.869 211.714 C 198.172 215.905,199.321 197.334,192.219 189.900 C 191.641 189.295,191.008 188.800,190.812 188.800 C 190.617 188.800,190.166 188.509,189.810 188.152 C 189.453 187.796,189.060 187.606,188.936 187.731 C 188.812 187.855,189.294 188.312,190.009 188.747 C 194.190 191.290,195.656 194.684,195.897 202.380 C 196.169 211.033,194.906 213.430,191.199 211.296 L 189.720 210.445 186.560 211.247 C 184.822 211.688,182.860 211.950,182.200 211.829 C 177.294 210.929,176.407 210.553,173.652 208.207 C 164.326 200.265,173.228 183.933,185.240 186.945 C 188.601 187.788,189.126 187.732,186.600 186.800 C 184.072 185.867,181.207 185.892,178.433 186.872 M199.700 187.222 C 198.307 188.528,198.066 189.745,198.952 191.011 C 199.255 191.445,199.609 192.160,199.738 192.600 C 199.866 193.040,199.875 192.860,199.757 192.200 C 199.111 188.580,199.114 188.358,199.816 187.582 C 202.110 185.047,204.452 187.325,206.209 193.800 C 207.140 197.234,207.962 199.174,207.982 197.989 C 207.992 197.433,207.753 196.623,207.450 196.189 C 207.148 195.755,206.775 194.653,206.622 193.740 C 205.574 187.496,202.498 184.599,199.700 187.222 M214.988 186.713 C 213.913 187.622,212.392 190.597,212.432 191.712 C 212.452 192.277,212.537 192.382,212.667 192.000 C 212.780 191.670,213.126 190.833,213.436 190.140 C 213.746 189.446,214.000 188.694,214.000 188.467 C 214.000 187.832,216.217 186.400,217.199 186.400 C 218.636 186.400,220.131 187.919,221.065 190.331 C 221.548 191.579,221.956 192.275,221.972 191.878 C 222.118 188.126,217.424 184.654,214.988 186.713 M230.723 186.914 C 230.109 187.419,229.479 188.488,229.258 189.400 C 228.869 191.005,228.658 191.691,227.412 195.400 C 227.042 196.500,226.573 198.195,226.369 199.167 C 225.757 202.088,224.441 201.417,223.686 197.800 C 223.190 195.426,222.043 192.313,222.018 193.274 C 222.008 193.645,222.202 194.455,222.450 195.074 C 222.697 195.693,223.192 197.350,223.550 198.756 C 224.459 202.331,225.762 203.243,226.373 200.733 C 226.605 199.780,226.995 198.460,227.238 197.800 C 227.482 197.140,227.927 195.700,228.227 194.600 C 229.831 188.720,230.036 188.202,231.082 187.367 C 232.203 186.473,233.187 186.523,235.144 187.570 C 236.229 188.151,236.245 189.621,235.191 191.944 C 234.756 192.903,234.400 193.956,234.400 194.283 C 234.400 194.611,234.106 195.498,233.748 196.254 C 233.389 197.010,233.179 197.712,233.280 197.814 C 233.660 198.193,235.276 193.897,236.123 190.261 C 236.881 187.005,233.307 184.790,230.723 186.914 M247.066 186.832 C 246.002 187.261,244.876 187.867,244.563 188.179 C 244.251 188.492,243.681 188.849,243.298 188.973 C 242.045 189.377,238.794 194.800,238.850 196.390 L 238.900 197.800 239.171 196.200 C 239.582 193.777,242.002 190.312,244.414 188.691 C 251.044 184.236,261.146 187.022,263.982 194.086 C 264.335 194.965,264.350 194.967,264.375 194.158 C 264.528 189.071,253.303 184.321,247.066 186.832 M269.727 186.829 C 267.835 188.041,267.750 193.457,269.605 194.603 C 269.822 194.737,270.000 195.154,270.000 195.530 C 270.000 195.905,270.360 196.884,270.800 197.704 C 271.240 198.525,271.600 199.403,271.600 199.655 C 271.600 200.370,274.442 206.491,274.669 206.264 C 274.796 206.138,274.123 204.415,272.613 201.000 C 272.321 200.340,271.683 198.810,271.194 197.600 C 270.706 196.390,269.977 194.590,269.574 193.600 C 267.987 189.701,268.105 187.985,270.015 187.194 C 272.196 186.290,273.824 187.436,274.859 190.600 C 275.087 191.297,275.125 191.307,275.160 190.680 C 275.325 187.712,272.013 185.365,269.727 186.829 M286.982 186.713 C 285.808 187.700,283.950 191.781,282.754 196.000 C 282.536 196.770,282.060 197.978,281.696 198.684 C 281.333 199.391,281.134 200.067,281.255 200.188 C 281.376 200.309,281.750 199.731,282.087 198.904 C 283.545 195.320,284.400 192.950,284.400 192.491 C 284.400 192.219,284.760 191.325,285.200 190.504 C 285.640 189.684,286.000 188.796,286.000 188.533 C 286.000 187.951,288.103 186.400,288.892 186.400 C 291.158 186.400,291.698 189.808,290.002 193.397 C 288.715 196.119,287.600 198.880,287.600 199.345 C 287.600 199.925,289.003 197.290,289.381 196.000 C 289.542 195.450,290.041 194.219,290.490 193.264 C 292.783 188.388,290.365 183.872,286.982 186.713 M303.807 186.389 C 303.674 186.603,302.873 186.965,302.026 187.193 C 299.188 187.957,295.147 193.057,295.246 195.750 L 295.292 197.000 295.576 195.600 C 296.911 189.015,304.723 184.715,311.200 187.000 C 313.613 187.851,314.120 187.728,312.056 186.791 C 310.171 185.936,304.265 185.648,303.807 186.389 M315.238 188.915 C 317.987 191.372,319.606 195.826,318.828 198.792 C 318.429 200.312,316.312 200.734,308.914 200.769 C 302.814 200.798,302.402 200.848,301.992 201.615 C 300.664 204.096,304.575 208.052,308.247 207.941 L 310.200 207.882 308.000 207.641 C 305.395 207.355,304.029 206.435,302.753 204.108 C 301.467 201.763,301.651 201.691,309.400 201.517 C 317.060 201.346,318.656 200.870,319.269 198.578 C 319.677 197.057,319.006 192.891,318.214 192.015 C 317.876 191.642,317.600 191.147,317.600 190.914 C 317.600 190.368,314.752 187.595,314.212 187.615 C 313.985 187.623,314.447 188.208,315.238 188.915 M120.400 191.785 C 120.400 192.327,120.040 193.684,119.600 194.800 C 119.160 195.916,118.800 197.141,118.800 197.521 C 118.800 197.901,118.468 198.839,118.061 199.606 C 117.655 200.373,117.204 201.487,117.058 202.083 C 116.523 204.274,115.178 206.045,114.253 205.777 C 113.408 205.533,113.115 205.246,110.663 202.264 C 109.968 201.420,109.220 200.520,109.000 200.264 C 108.780 200.009,107.816 198.769,106.858 197.509 C 104.928 194.970,102.250 192.400,101.534 192.400 C 101.280 192.400,101.707 192.895,102.485 193.500 C 103.262 194.105,105.946 197.170,108.449 200.312 C 114.335 207.699,115.541 207.967,117.429 202.305 C 117.777 201.262,118.212 200.316,118.396 200.203 C 118.580 200.089,118.859 199.236,119.016 198.307 C 119.173 197.378,119.538 196.254,119.827 195.809 C 120.389 194.943,121.071 190.800,120.652 190.800 C 120.513 190.800,120.400 191.243,120.400 191.785 M304.337 191.714 C 301.767 193.855,301.059 197.104,303.254 196.688 C 304.122 196.524,304.110 196.504,303.100 196.454 C 301.756 196.388,301.755 196.360,303.018 194.205 C 305.219 190.449,309.842 190.190,312.069 193.698 C 312.284 194.037,312.390 194.051,312.394 193.741 C 312.426 191.346,306.553 189.869,304.337 191.714 M275.200 192.087 C 275.200 192.453,275.368 192.857,275.574 192.984 C 275.779 193.111,276.245 194.156,276.609 195.307 C 278.657 201.791,279.878 203.855,280.805 202.400 C 281.016 202.070,281.170 201.530,281.147 201.200 C 281.119 200.775,281.054 200.804,280.924 201.300 C 280.711 202.114,280.605 202.138,279.591 201.595 C 279.157 201.363,278.723 200.553,278.572 199.695 C 278.428 198.873,278.075 197.824,277.788 197.364 C 277.500 196.904,277.053 195.739,276.793 194.775 C 276.248 192.750,275.200 190.982,275.200 192.087 M178.912 192.788 C 172.275 196.835,175.041 206.526,182.779 206.335 L 185.400 206.271 182.485 206.035 C 180.881 205.906,179.441 205.602,179.285 205.360 C 179.128 205.118,178.613 204.716,178.139 204.467 C 176.960 203.846,175.597 200.883,175.612 198.974 C 175.654 193.722,182.872 190.208,186.869 193.494 C 190.644 196.596,190.717 201.164,187.044 204.488 C 186.140 205.306,185.580 205.976,185.800 205.976 C 186.533 205.977,188.749 203.669,189.580 202.040 C 192.660 196.002,184.808 189.193,178.912 192.788 M247.695 193.258 C 241.882 197.761,244.753 206.400,252.064 206.400 C 255.416 206.400,260.474 202.741,259.067 201.334 C 258.920 201.187,258.800 201.327,258.800 201.644 C 258.800 202.255,257.148 204.129,255.577 205.300 C 252.203 207.814,245.928 204.961,245.392 200.671 C 244.337 192.230,255.658 188.771,258.813 196.569 C 259.066 197.194,259.156 197.236,259.175 196.739 C 259.189 196.375,258.412 195.207,257.450 194.144 L 255.699 192.210 252.550 192.074 C 249.505 191.942,249.343 191.981,247.695 193.258 M211.534 194.907 C 211.168 195.838,210.752 197.294,210.608 198.141 C 210.448 199.093,209.937 200.037,209.274 200.607 C 208.072 201.642,208.271 202.337,209.541 201.544 C 210.051 201.225,210.529 200.271,210.807 199.016 C 211.052 197.907,211.532 196.341,211.872 195.535 C 212.212 194.729,212.425 193.877,212.345 193.642 C 212.265 193.407,211.900 193.976,211.534 194.907 M125.255 194.698 C 125.005 195.165,124.806 195.784,124.814 196.074 C 124.822 196.363,125.066 196.171,125.357 195.646 C 126.137 194.239,126.556 195.192,126.832 199.000 L 127.065 202.200 127.132 198.944 C 127.187 196.297,127.061 195.517,126.455 194.768 L 125.710 193.848 125.255 194.698 M200.019 194.600 C 200.022 195.040,200.290 195.749,200.613 196.176 C 200.936 196.604,201.200 197.330,201.200 197.792 C 201.200 198.253,201.540 199.297,201.955 200.111 C 202.370 200.925,202.826 202.216,202.970 202.979 C 203.113 203.742,203.492 204.869,203.812 205.483 C 204.133 206.097,204.396 206.981,204.398 207.446 C 204.399 207.911,204.760 208.750,205.200 209.309 C 205.640 209.869,206.000 210.508,206.000 210.730 C 206.000 210.953,206.650 211.536,207.444 212.027 C 210.341 213.818,213.384 211.628,214.391 207.027 C 214.628 205.942,214.990 204.853,215.194 204.607 C 215.398 204.362,215.659 203.359,215.775 202.380 C 215.950 200.893,215.925 200.797,215.623 201.800 C 215.424 202.460,214.985 203.720,214.648 204.600 C 214.311 205.480,214.027 206.500,214.018 206.867 C 213.957 209.163,211.237 212.400,209.367 212.400 C 207.259 212.400,203.216 205.514,203.198 201.892 C 203.196 201.621,202.942 200.914,202.632 200.320 C 202.322 199.727,201.785 198.287,201.438 197.120 C 200.678 194.565,200.009 193.377,200.019 194.600 M312.352 195.513 C 312.221 196.307,312.279 196.681,312.501 196.459 C 312.703 196.257,312.801 195.667,312.719 195.146 C 312.593 194.345,312.537 194.402,312.352 195.513 M264.422 195.400 C 264.417 195.620,264.671 196.520,264.988 197.400 C 265.927 200.006,265.810 208.250,264.811 209.889 C 263.699 211.713,260.010 212.034,258.997 210.395 C 258.879 210.204,258.111 210.341,257.291 210.699 C 256.245 211.155,254.606 211.350,251.800 211.354 C 248.581 211.357,248.073 211.431,249.200 211.733 C 251.254 212.281,253.492 212.206,256.178 211.497 C 258.454 210.896,258.630 210.904,260.324 211.700 C 262.210 212.587,263.896 212.171,265.306 210.472 C 266.138 209.470,265.982 197.719,265.116 196.200 C 264.740 195.540,264.428 195.180,264.422 195.400 M123.900 197.814 C 123.515 198.329,123.200 199.021,123.200 199.352 C 123.200 199.682,123.019 200.065,122.797 200.202 C 122.575 200.339,122.070 201.114,121.673 201.925 C 119.534 206.297,115.891 210.800,114.491 210.800 C 113.399 210.800,110.885 208.376,108.880 205.391 C 106.263 201.492,103.447 198.006,102.735 197.779 C 101.067 197.250,99.993 198.594,100.074 201.109 L 100.148 203.400 100.295 201.295 C 100.631 196.485,102.432 197.022,106.827 203.245 C 112.507 211.287,114.396 212.541,116.856 209.900 C 118.142 208.519,121.328 203.844,122.026 202.315 C 122.255 201.812,122.971 200.423,123.616 199.228 C 124.893 196.863,124.997 196.347,123.900 197.814 M216.833 198.147 C 216.375 198.888,216.003 199.743,216.007 200.047 C 216.010 200.351,216.388 200.015,216.846 199.300 C 217.864 197.711,218.394 197.643,218.418 199.100 C 218.427 199.705,218.708 200.920,219.042 201.800 C 219.376 202.680,219.893 204.300,220.192 205.400 C 221.674 210.861,222.928 212.509,225.600 212.509 C 228.248 212.509,229.364 210.960,231.443 204.400 C 231.757 203.410,232.280 202.033,232.607 201.340 C 232.933 200.646,233.179 199.656,233.154 199.140 C 233.113 198.321,233.082 198.303,232.914 199.000 C 232.808 199.440,232.488 200.340,232.204 201.000 C 231.691 202.188,230.895 204.483,229.763 208.036 C 227.477 215.207,221.938 212.643,220.180 203.600 C 220.030 202.830,219.768 202.020,219.597 201.800 C 219.426 201.580,219.074 200.365,218.815 199.100 C 218.269 196.439,217.976 196.298,216.833 198.147 M294.914 199.000 C 294.917 200.100,294.995 200.503,295.087 199.895 C 295.179 199.286,295.177 198.386,295.082 197.895 C 294.987 197.403,294.911 197.900,294.914 199.000 M259.309 199.200 C 259.309 200.190,259.387 200.595,259.482 200.100 C 259.578 199.605,259.578 198.795,259.482 198.300 C 259.387 197.805,259.309 198.210,259.309 199.200 M84.225 200.500 C 83.789 201.952,82.808 212.235,82.860 214.813 L 82.921 217.800 83.216 214.200 C 83.872 206.195,84.511 200.973,84.894 200.500 C 85.172 200.155,85.155 200.000,84.836 200.000 C 84.583 200.000,84.307 200.225,84.225 200.500 M286.640 201.650 C 286.240 202.612,285.572 204.140,285.156 205.044 C 284.740 205.948,284.394 206.938,284.388 207.244 C 284.349 208.941,281.409 212.000,279.816 212.000 C 278.404 212.000,276.746 210.624,275.807 208.672 C 275.258 207.532,274.807 206.939,274.805 207.353 C 274.792 209.421,277.836 212.400,279.962 212.400 C 281.506 212.400,284.209 209.781,284.626 207.880 C 284.780 207.176,285.243 205.973,285.653 205.206 C 286.064 204.439,286.400 203.578,286.400 203.292 C 286.400 203.006,286.687 202.334,287.038 201.799 C 287.388 201.264,287.606 200.617,287.521 200.363 C 287.436 200.108,287.040 200.687,286.640 201.650 M238.966 202.070 C 239.038 203.109,239.429 204.377,239.848 204.924 C 240.261 205.465,240.870 206.312,241.200 206.807 C 242.040 208.065,243.707 209.600,244.234 209.600 C 244.477 209.600,245.002 209.960,245.400 210.400 C 245.798 210.840,246.501 211.182,246.962 211.160 C 247.777 211.121,247.778 211.113,247.000 210.860 C 243.992 209.882,239.714 204.957,239.133 201.803 C 238.838 200.202,238.838 200.203,238.966 202.070 M295.263 202.600 C 295.225 204.191,295.830 205.465,297.975 208.307 C 298.512 209.018,299.159 209.600,299.413 209.600 C 299.668 209.600,300.202 209.960,300.600 210.400 C 300.998 210.840,301.608 211.200,301.955 211.200 C 302.302 211.200,301.869 210.724,300.993 210.143 C 297.670 207.938,296.125 205.787,295.576 202.600 L 295.300 201.000 295.263 202.600 M126.400 203.149 C 126.400 206.175,121.701 212.783,117.600 215.525 C 112.230 219.114,109.512 219.532,92.600 219.361 C 82.541 219.260,83.200 219.318,83.200 218.533 C 83.200 218.167,83.094 217.973,82.963 218.103 C 80.388 220.679,111.176 220.756,114.022 218.180 C 114.374 217.861,114.816 217.600,115.002 217.600 C 115.663 217.600,120.848 213.864,121.610 212.840 C 122.035 212.268,122.629 211.530,122.930 211.200 C 124.899 209.042,127.709 202.400,126.653 202.400 C 126.514 202.400,126.400 202.737,126.400 203.149 M314.600 204.232 C 313.940 204.796,312.708 205.708,311.862 206.258 C 311.016 206.808,310.410 207.344,310.515 207.449 C 310.713 207.646,312.355 206.603,314.839 204.700 C 317.144 202.935,318.800 203.501,318.800 206.053 C 318.800 207.692,315.248 210.560,312.194 211.387 C 309.615 212.085,308.962 212.085,304.000 211.389 C 302.752 211.214,302.796 211.257,304.400 211.790 C 311.197 214.048,320.517 209.376,318.908 204.517 C 318.385 202.938,316.277 202.799,314.600 204.232 M150.012 206.020 C 150.005 206.361,150.189 206.829,150.421 207.061 C 153.416 210.056,151.349 216.000,147.312 216.000 C 144.992 216.000,143.183 217.185,143.216 218.682 C 143.225 219.117,143.454 218.888,143.796 218.100 C 144.389 216.737,144.789 216.602,147.728 216.781 C 149.581 216.894,150.503 216.156,151.742 213.566 L 152.635 211.701 151.817 209.350 C 150.859 206.595,150.031 205.067,150.012 206.020 " stroke="none" fill="#60bae9" fill-rule="evenodd"></path><path id="path3" d="M101.400 178.252 C 99.761 178.677,96.347 180.017,95.882 180.418 C 95.617 180.647,94.446 181.438,93.279 182.175 C 87.406 185.887,82.647 196.729,86.100 198.530 C 88.525 199.794,90.194 200.866,92.400 202.574 C 96.965 206.111,97.200 205.936,97.200 198.996 C 97.200 189.465,101.450 189.743,108.600 199.743 C 109.040 200.358,109.760 201.261,110.200 201.749 C 110.640 202.236,111.540 203.287,112.200 204.083 C 114.378 206.709,116.101 205.999,117.058 202.083 C 117.204 201.487,117.655 200.373,118.061 199.606 C 118.468 198.839,118.800 197.939,118.800 197.606 C 118.800 197.273,119.155 195.920,119.589 194.600 C 120.524 191.756,121.603 186.975,121.601 185.683 C 121.596 181.497,108.075 176.523,101.400 178.252 M111.680 179.448 C 112.274 179.752,113.105 180.000,113.526 180.000 C 113.947 180.000,114.721 180.322,115.246 180.716 C 115.771 181.110,116.695 181.646,117.300 181.907 C 117.905 182.169,118.400 182.567,118.400 182.791 C 118.400 183.016,118.604 183.200,118.854 183.200 C 120.392 183.200,121.296 185.279,120.640 187.310 C 120.288 188.400,120.000 189.882,120.000 190.602 C 120.000 191.323,119.644 192.697,119.209 193.656 C 118.774 194.615,118.412 195.940,118.406 196.600 C 118.400 197.260,118.037 198.340,117.600 199.000 C 117.163 199.660,116.804 200.593,116.803 201.072 C 116.794 204.023,114.212 205.498,112.503 203.529 C 111.896 202.830,111.085 201.930,110.700 201.529 C 110.315 201.128,110.000 200.622,110.000 200.403 C 110.000 200.185,109.640 199.782,109.200 199.507 C 108.760 199.232,108.400 198.790,108.400 198.524 C 108.400 197.669,103.377 192.448,102.079 191.954 C 98.040 190.418,96.651 192.138,96.400 198.983 L 96.200 204.436 94.937 203.518 C 94.243 203.013,93.281 202.330,92.800 202.000 C 92.319 201.670,91.367 200.995,90.685 200.500 C 90.003 200.005,89.237 199.600,88.984 199.600 C 88.731 199.600,88.198 199.240,87.800 198.800 C 87.402 198.360,86.846 198.000,86.565 198.000 C 84.667 198.000,86.445 189.891,88.843 187.611 C 89.196 187.275,90.163 186.145,90.991 185.100 C 91.819 184.055,92.653 183.200,92.844 183.200 C 93.035 183.200,94.228 182.480,95.496 181.601 C 96.763 180.721,98.075 180.001,98.411 180.001 C 98.747 180.000,99.393 179.740,99.847 179.422 C 101.316 178.393,109.653 178.411,111.680 179.448 M145.305 187.300 C 143.878 188.840,143.919 189.126,146.534 196.000 C 146.994 197.210,147.602 198.555,147.885 198.989 C 148.168 199.423,148.400 200.056,148.400 200.395 C 148.400 200.734,148.760 201.684,149.200 202.504 C 149.640 203.325,150.000 204.285,150.000 204.637 C 150.000 204.989,150.273 205.754,150.607 206.338 C 153.531 211.453,151.990 217.041,147.728 216.781 C 145.107 216.622,144.442 216.773,143.980 217.637 C 141.904 221.517,151.495 223.096,155.000 219.452 C 156.075 218.334,157.983 215.498,157.995 215.000 C 158.000 214.780,158.992 212.170,160.200 209.200 C 161.408 206.230,162.397 203.617,162.398 203.394 C 162.399 203.171,162.760 202.316,163.200 201.496 C 163.640 200.675,164.000 199.775,164.000 199.496 C 164.000 199.216,164.360 198.316,164.800 197.496 C 165.240 196.675,165.606 195.777,165.614 195.501 C 165.621 195.226,165.975 194.280,166.400 193.400 C 167.687 190.736,167.491 187.804,165.976 187.048 C 163.829 185.977,162.189 187.257,161.006 190.928 C 160.709 191.848,159.992 193.860,159.412 195.400 C 158.831 196.940,158.169 198.830,157.939 199.600 C 157.452 201.231,155.973 204.000,155.587 204.000 C 155.324 204.000,152.304 195.502,151.598 192.774 C 151.395 191.989,150.954 190.819,150.617 190.174 C 150.280 189.528,150.004 188.806,150.002 188.570 C 149.992 186.750,146.652 185.847,145.305 187.300 M179.195 187.147 C 168.251 190.387,166.383 203.295,175.900 209.919 C 177.068 210.732,178.368 211.126,182.200 211.829 C 182.860 211.950,184.822 211.688,186.560 211.247 L 189.720 210.445 191.199 211.296 C 193.224 212.462,194.988 211.801,195.637 209.633 C 196.182 207.815,195.908 197.194,195.264 195.200 C 193.321 189.176,185.530 185.272,179.195 187.147 M215.100 187.246 C 214.495 187.697,213.999 188.277,213.998 188.533 C 213.996 188.790,213.724 189.519,213.394 190.153 C 213.063 190.787,212.680 192.047,212.541 192.953 C 212.403 193.859,212.112 194.947,211.893 195.371 C 211.675 195.795,211.245 197.218,210.938 198.534 C 210.449 200.629,209.606 201.946,208.728 201.987 C 208.579 201.994,208.244 200.965,207.984 199.700 C 207.723 198.435,207.327 197.052,207.102 196.627 C 206.878 196.202,206.463 194.942,206.180 193.827 C 204.842 188.549,203.706 186.800,201.618 186.800 C 200.049 186.800,199.056 188.048,199.325 189.682 C 199.802 192.576,201.299 197.381,202.621 200.260 C 202.939 200.954,203.200 201.715,203.200 201.952 C 203.200 202.803,205.227 208.400,206.025 209.753 C 208.712 214.307,213.004 212.437,214.173 206.203 C 214.336 205.336,214.699 204.171,214.981 203.614 C 215.263 203.056,215.622 201.880,215.780 201.000 C 216.080 199.330,217.419 196.800,218.004 196.800 C 218.191 196.800,218.556 197.835,218.815 199.100 C 219.074 200.365,219.426 201.580,219.597 201.800 C 219.768 202.020,220.030 202.830,220.180 203.600 C 221.938 212.643,227.477 215.207,229.763 208.036 C 230.888 204.506,231.690 202.191,232.201 201.000 C 232.484 200.340,232.842 199.203,232.996 198.473 C 233.149 197.743,233.527 196.663,233.835 196.073 C 234.143 195.483,234.396 194.705,234.398 194.344 C 234.399 193.983,234.756 192.903,235.191 191.944 C 236.245 189.621,236.229 188.151,235.144 187.570 C 233.187 186.523,232.203 186.473,231.082 187.367 C 230.036 188.202,229.831 188.720,228.227 194.600 C 227.927 195.700,227.482 197.140,227.238 197.800 C 226.995 198.460,226.605 199.780,226.373 200.733 C 225.865 202.820,224.474 202.387,223.863 199.952 C 220.781 187.656,218.664 184.587,215.100 187.246 M249.200 186.766 C 248.870 186.954,247.996 187.237,247.257 187.395 C 243.480 188.203,239.529 192.919,239.042 197.200 C 237.917 207.090,248.036 214.513,257.374 210.648 C 258.363 210.239,258.771 210.275,259.959 210.881 C 268.087 215.025,267.640 193.784,259.490 188.646 C 256.619 186.835,250.909 185.792,249.200 186.766 M287.100 187.246 C 286.495 187.697,285.999 188.277,285.998 188.533 C 285.996 188.790,285.705 189.540,285.349 190.200 C 284.994 190.860,284.557 191.940,284.377 192.600 C 284.197 193.260,283.569 195.060,282.982 196.600 C 282.396 198.140,281.643 200.165,281.310 201.100 C 280.106 204.484,279.246 203.419,276.578 195.244 C 276.262 194.278,275.844 193.288,275.648 193.044 C 275.453 192.800,275.162 191.993,275.004 191.251 C 274.270 187.825,272.321 186.239,270.015 187.194 C 268.086 187.993,267.982 189.706,269.621 193.700 C 270.049 194.745,270.782 196.545,271.248 197.700 C 271.714 198.855,272.414 200.520,272.802 201.400 C 273.191 202.280,273.969 204.170,274.531 205.600 C 276.433 210.439,277.722 212.000,279.816 212.000 C 281.409 212.000,284.349 208.941,284.388 207.244 C 284.394 206.938,284.738 205.948,285.152 205.044 C 286.107 202.957,287.278 200.114,288.552 196.793 C 289.101 195.359,289.827 193.653,290.165 193.003 C 292.362 188.768,290.286 184.869,287.100 187.246 M303.003 187.253 C 296.424 189.376,293.056 198.757,296.488 205.400 C 300.118 212.427,311.031 214.253,316.835 208.804 C 320.426 205.433,318.651 201.781,314.839 204.700 C 310.320 208.161,307.684 208.859,305.118 207.273 C 302.696 205.776,301.207 203.081,301.992 201.615 C 302.402 200.848,302.814 200.798,308.914 200.769 C 318.521 200.724,319.346 200.312,318.883 195.800 C 318.155 188.714,310.780 184.744,303.003 187.253 M149.597 189.006 C 149.599 189.449,149.960 190.484,150.400 191.304 C 150.840 192.125,151.200 193.298,151.200 193.910 C 151.200 194.521,151.499 195.449,151.865 195.971 C 152.230 196.493,152.671 197.568,152.845 198.360 C 153.438 201.067,154.911 204.800,155.386 204.800 C 156.570 204.800,158.400 201.777,158.400 199.823 C 158.400 199.314,158.650 198.690,158.957 198.436 C 159.263 198.182,159.631 197.185,159.776 196.220 C 159.921 195.255,160.300 194.249,160.620 193.984 C 160.939 193.719,161.200 193.153,161.200 192.726 C 161.200 190.822,163.209 187.600,164.396 187.600 C 167.002 187.600,167.642 189.633,166.000 192.696 C 165.560 193.516,165.200 194.574,165.200 195.045 C 165.200 195.516,164.935 196.122,164.611 196.391 C 164.286 196.660,163.904 197.537,163.760 198.340 C 163.616 199.143,163.272 200.070,162.994 200.400 C 162.716 200.730,162.359 201.630,162.200 202.400 C 162.041 203.170,161.681 204.070,161.400 204.400 C 161.119 204.730,160.759 205.630,160.600 206.400 C 160.441 207.170,160.085 208.070,159.809 208.400 C 159.533 208.730,159.187 209.540,159.040 210.200 C 158.548 212.407,155.960 217.582,154.671 218.937 C 152.400 221.323,144.400 221.174,144.400 218.745 C 144.400 217.505,144.633 217.424,147.800 217.562 C 149.572 217.640,152.000 215.835,152.000 214.441 C 152.000 214.046,152.345 213.325,152.766 212.839 C 153.557 211.928,153.376 210.016,152.407 209.047 C 152.183 208.823,151.999 208.271,151.997 207.820 C 151.996 207.369,151.637 206.460,151.200 205.800 C 150.763 205.140,150.404 204.284,150.403 203.899 C 150.401 203.513,150.040 202.525,149.600 201.704 C 149.160 200.884,148.800 199.984,148.800 199.704 C 148.800 199.425,148.440 198.525,148.000 197.704 C 147.560 196.884,147.200 195.934,147.200 195.595 C 147.200 195.256,146.956 194.623,146.657 194.189 C 144.967 191.734,145.028 187.460,146.758 187.105 C 147.777 186.895,149.595 188.112,149.597 189.006 M255.378 187.664 C 256.466 187.884,257.795 188.410,258.332 188.832 C 258.869 189.255,259.455 189.600,259.636 189.600 C 260.042 189.600,262.000 191.529,262.000 191.929 C 262.000 192.090,262.315 192.667,262.700 193.211 C 264.489 195.739,265.491 206.737,264.183 209.492 C 263.440 211.058,260.331 211.292,259.520 209.842 C 259.055 209.012,258.452 209.029,257.488 209.900 C 256.842 210.484,255.940 210.598,252.057 210.589 L 247.400 210.579 245.200 209.044 C 238.491 204.362,237.547 196.344,243.078 191.016 C 245.889 188.308,246.274 188.068,248.271 187.773 C 249.332 187.617,250.560 187.341,251.000 187.160 C 251.440 186.979,252.160 186.928,252.600 187.047 C 253.040 187.166,254.290 187.443,255.378 187.664 M310.460 187.636 C 312.197 187.906,313.603 188.372,314.136 188.855 C 314.611 189.285,315.303 189.918,315.674 190.261 C 317.206 191.679,318.453 194.945,318.324 197.201 C 318.167 199.943,318.282 199.908,309.180 199.960 C 301.330 200.005,301.200 200.048,301.200 202.635 C 301.200 204.089,301.458 204.584,303.162 206.399 L 305.124 208.488 308.279 208.344 C 311.404 208.201,311.461 208.179,314.074 206.100 L 316.712 204.001 317.656 204.766 L 318.600 205.531 317.700 206.749 C 317.205 207.419,316.800 208.155,316.800 208.384 C 316.800 208.613,316.554 208.800,316.254 208.800 C 315.954 208.800,315.253 209.158,314.696 209.596 C 312.330 211.457,303.854 211.363,301.026 209.443 C 299.401 208.341,297.200 205.781,297.200 204.994 C 297.200 204.721,296.930 204.274,296.600 204.000 C 295.623 203.189,295.765 196.230,296.800 194.200 C 297.240 193.337,297.600 192.399,297.600 192.115 C 297.600 191.832,297.784 191.600,298.009 191.600 C 298.233 191.600,298.622 191.150,298.873 190.600 C 299.123 190.050,299.513 189.600,299.738 189.600 C 299.964 189.600,300.520 189.257,300.974 188.839 C 301.689 188.180,304.605 187.400,306.923 187.248 C 307.321 187.221,308.913 187.396,310.460 187.636 M188.655 188.546 C 191.818 191.251,193.600 192.972,193.600 193.323 C 193.600 193.551,193.915 194.085,194.300 194.510 C 195.088 195.380,195.585 209.272,194.867 210.340 C 194.339 211.124,191.697 211.012,190.762 210.166 C 190.005 209.480,189.893 209.481,187.956 210.177 C 185.284 211.138,177.771 210.923,176.997 209.863 C 176.730 209.498,176.331 209.200,176.110 209.200 C 175.543 209.200,173.559 207.303,172.024 205.292 C 170.191 202.891,170.035 195.962,171.757 193.425 C 173.691 190.575,176.621 188.219,178.675 187.863 C 181.159 187.432,187.890 187.893,188.655 188.546 M203.071 187.845 C 203.724 188.020,204.010 188.495,204.210 189.739 C 204.357 190.653,204.715 191.777,205.007 192.237 C 205.298 192.698,205.717 194.048,205.938 195.237 C 206.159 196.427,206.622 197.940,206.967 198.600 C 207.313 199.260,207.596 200.351,207.598 201.024 C 207.606 205.197,210.759 203.856,211.416 199.400 C 211.578 198.300,211.955 197.045,212.255 196.611 C 212.555 196.177,212.800 195.184,212.800 194.405 C 212.800 193.626,213.160 192.316,213.600 191.496 C 214.040 190.675,214.400 189.649,214.400 189.216 C 214.400 188.251,215.529 187.600,217.200 187.600 C 218.845 187.600,220.000 188.248,220.000 189.170 C 220.000 189.579,220.356 190.697,220.791 191.656 C 221.226 192.615,221.586 193.945,221.591 194.611 C 221.596 195.277,221.854 196.185,222.164 196.628 C 222.475 197.071,222.923 198.506,223.160 199.817 C 223.996 204.427,226.363 205.106,226.992 200.915 C 227.144 199.898,227.506 198.692,227.796 198.233 C 228.086 197.775,228.449 196.620,228.602 195.667 C 228.756 194.714,229.132 193.454,229.438 192.867 C 229.744 192.280,229.996 191.407,229.998 190.926 C 230.005 188.401,231.334 187.311,233.835 187.780 C 235.379 188.070,235.749 189.840,234.587 191.376 C 234.264 191.804,234.000 192.620,234.000 193.192 C 234.000 193.763,233.640 194.937,233.200 195.800 C 232.760 196.663,232.400 197.849,232.400 198.436 C 232.400 199.022,232.144 199.714,231.831 199.974 C 231.518 200.234,231.144 201.145,231.000 202.000 C 230.856 202.854,230.392 204.232,229.969 205.061 C 229.546 205.891,229.200 207.031,229.200 207.595 C 229.200 211.820,222.912 212.214,222.206 208.034 C 222.061 207.176,221.691 206.142,221.384 205.737 C 221.077 205.332,220.820 204.367,220.813 203.594 C 220.806 202.821,220.440 201.516,220.000 200.696 C 219.560 199.875,219.200 198.740,219.200 198.175 C 219.200 194.041,216.033 195.565,215.371 200.018 C 215.225 200.998,214.861 202.192,214.562 202.672 C 214.263 203.151,213.903 204.321,213.762 205.272 C 213.621 206.222,213.285 207.360,213.016 207.800 C 212.747 208.240,212.413 209.050,212.275 209.600 C 211.924 210.992,208.400 212.447,208.400 211.200 C 208.400 210.980,208.132 210.800,207.805 210.800 C 207.478 210.800,206.957 210.192,206.646 209.449 C 206.336 208.706,205.883 207.975,205.641 207.825 C 205.398 207.675,205.196 207.068,205.191 206.476 C 205.186 205.884,204.826 204.615,204.391 203.656 C 203.956 202.697,203.599 201.527,203.597 201.056 C 203.596 200.585,203.237 199.660,202.800 199.000 C 202.363 198.340,202.004 197.347,202.003 196.794 C 202.001 196.241,201.657 195.148,201.238 194.366 C 198.982 190.158,199.874 186.987,203.071 187.845 M273.743 189.637 C 274.324 190.757,274.800 192.034,274.800 192.475 C 274.800 192.916,275.065 193.754,275.388 194.338 C 275.712 194.922,276.169 196.165,276.404 197.100 C 276.639 198.035,276.983 198.800,277.170 198.800 C 277.357 198.800,277.633 199.623,277.783 200.629 C 278.081 202.612,279.147 204.000,280.373 204.000 C 281.132 204.000,281.267 203.757,281.783 201.452 C 281.924 200.820,282.301 200.042,282.620 199.723 C 282.939 199.404,283.200 198.705,283.200 198.170 C 283.200 197.635,283.560 196.525,284.000 195.704 C 284.440 194.884,284.801 193.849,284.803 193.406 C 284.804 192.963,285.163 192.060,285.600 191.400 C 286.037 190.740,286.396 189.801,286.397 189.314 C 286.401 188.249,287.638 187.504,289.120 187.675 C 290.556 187.841,290.906 190.719,289.689 192.366 C 289.269 192.935,288.799 194.075,288.645 194.900 C 288.490 195.725,288.200 196.400,288.000 196.400 C 287.800 196.400,287.512 197.075,287.360 197.900 C 287.208 198.725,286.750 199.829,286.342 200.354 C 285.934 200.879,285.599 201.689,285.597 202.154 C 285.596 202.619,285.237 203.540,284.800 204.200 C 284.363 204.860,284.004 205.724,284.003 206.121 C 284.000 206.916,282.433 210.026,281.800 210.493 C 280.781 211.244,277.200 210.714,277.200 209.811 C 277.200 209.534,276.840 208.850,276.400 208.291 C 275.960 207.731,275.600 207.025,275.600 206.721 C 275.600 206.418,275.240 205.463,274.800 204.600 C 274.360 203.737,273.999 202.754,273.999 202.415 C 273.998 202.077,273.659 201.245,273.245 200.567 C 272.831 199.888,272.370 198.776,272.221 198.094 C 272.071 197.413,271.690 196.641,271.374 196.379 C 271.058 196.117,270.799 195.429,270.797 194.851 C 270.796 194.273,270.437 193.260,270.000 192.600 C 268.963 191.034,268.901 188.137,269.900 187.876 C 272.108 187.299,272.662 187.552,273.743 189.637 M304.011 191.191 C 298.939 195.589,300.226 197.734,307.814 197.532 C 313.629 197.377,313.826 197.267,313.159 194.559 C 312.209 190.705,306.847 188.731,304.011 191.191 M250.000 191.507 C 243.407 193.175,241.668 201.360,247.038 205.456 C 249.381 207.244,255.411 207.494,256.610 205.853 C 256.873 205.494,257.299 205.200,257.557 205.200 C 257.814 205.200,258.143 204.885,258.288 204.500 C 258.432 204.115,258.832 203.590,259.175 203.332 C 260.138 202.612,260.075 195.739,259.100 195.024 C 258.715 194.742,258.400 194.331,258.400 194.110 C 258.400 193.475,255.451 191.600,254.452 191.600 C 253.955 191.600,253.244 191.454,252.874 191.275 C 252.487 191.089,251.262 191.188,250.000 191.507 M311.053 192.121 C 312.210 193.181,312.505 193.754,312.547 195.021 L 312.600 196.600 307.432 196.712 C 301.435 196.843,301.153 196.710,302.383 194.326 C 304.367 190.481,308.200 189.506,311.053 192.121 M180.349 191.575 C 178.673 191.902,176.957 193.207,175.688 195.118 C 174.583 196.782,174.359 202.656,175.385 203.050 C 175.706 203.173,176.072 203.597,176.197 203.991 C 177.645 208.554,186.688 207.900,189.902 203.000 C 191.582 200.438,190.725 193.600,188.724 193.600 C 188.563 193.600,188.105 193.250,187.707 192.823 C 186.503 191.530,183.333 190.993,180.349 191.575 M187.045 193.231 C 190.153 195.691,191.088 199.000,189.546 202.089 C 185.959 209.278,175.200 207.086,175.200 199.167 C 175.200 193.292,182.500 189.633,187.045 193.231 M257.427 194.119 C 263.308 200.615,255.110 210.327,247.940 205.359 C 241.558 200.935,244.749 191.736,252.550 192.074 L 255.699 192.210 257.427 194.119 M124.262 197.874 C 116.581 213.759,114.669 214.348,106.827 203.245 C 101.451 195.633,100.000 196.486,100.000 207.260 C 100.000 209.343,99.050 210.800,97.691 210.800 C 96.949 210.800,94.845 208.934,91.282 205.118 C 88.440 202.073,85.390 199.886,84.872 200.522 C 84.658 200.785,84.265 203.340,83.999 206.200 C 83.732 209.060,83.451 211.505,83.374 211.634 C 83.120 212.060,83.092 218.826,83.344 219.077 C 84.477 220.210,110.846 219.195,113.493 217.916 C 121.689 213.958,126.296 207.699,126.682 200.000 C 126.968 194.298,126.282 193.696,124.262 197.874 M126.127 200.995 C 125.984 202.532,125.627 204.030,125.334 204.323 C 125.040 204.617,124.800 205.258,124.800 205.747 C 124.800 206.600,124.503 207.097,122.500 209.594 C 122.005 210.211,121.594 210.870,121.587 211.058 C 121.556 211.898,119.537 213.655,117.000 215.049 C 116.340 215.412,115.656 215.954,115.480 216.254 C 115.304 216.554,114.899 216.800,114.579 216.800 C 114.259 216.800,113.325 217.160,112.504 217.600 C 111.056 218.376,84.249 218.915,83.516 218.183 C 83.397 218.064,83.553 216.669,83.863 215.083 C 84.172 213.497,84.538 209.718,84.675 206.685 C 84.812 203.652,85.076 201.076,85.262 200.962 C 85.448 200.847,85.600 200.931,85.600 201.149 C 85.600 201.368,85.991 201.670,86.469 201.822 C 86.946 201.973,89.350 204.164,91.811 206.689 C 98.230 213.277,100.038 213.239,100.542 206.506 C 101.026 200.031,101.987 197.819,103.435 199.849 C 103.856 200.439,104.470 201.211,104.800 201.564 C 105.130 201.917,106.059 203.195,106.864 204.403 C 107.669 205.611,108.884 207.217,109.564 207.972 C 110.244 208.727,110.800 209.492,110.800 209.672 C 110.800 209.852,110.996 210.000,111.236 210.000 C 111.476 210.000,111.977 210.377,112.350 210.837 C 114.266 213.204,117.182 211.512,120.600 206.048 C 120.820 205.697,121.315 204.978,121.700 204.451 C 122.085 203.923,122.400 203.246,122.400 202.946 C 122.400 202.646,122.760 202.040,123.200 201.600 C 123.640 201.160,124.000 200.462,124.000 200.049 C 124.000 199.636,124.258 199.083,124.574 198.821 C 124.890 198.559,125.278 197.772,125.437 197.072 L 125.725 195.800 126.055 197.000 C 126.237 197.660,126.269 199.458,126.127 200.995 " stroke="none" fill="#a4d8f2" fill-rule="evenodd"></path><path id="path4" d="M104.200 177.200 C 104.048 177.446,104.694 177.598,105.876 177.594 C 107.266 177.589,107.633 177.480,107.200 177.200 C 106.413 176.691,104.514 176.691,104.200 177.200 M98.300 178.065 C 97.695 178.286,97.200 178.632,97.200 178.833 C 97.200 179.332,97.745 179.295,98.279 178.761 C 98.520 178.520,99.681 178.183,100.859 178.011 L 103.000 177.700 101.200 177.681 C 100.210 177.671,98.905 177.844,98.300 178.065 M110.200 177.944 C 111.300 178.101,112.620 178.463,113.134 178.748 C 114.257 179.369,114.677 179.128,113.776 178.380 C 113.422 178.086,112.023 177.804,110.666 177.752 C 108.214 177.658,108.212 177.659,110.200 177.944 M95.192 179.810 C 94.424 180.735,94.879 180.829,95.944 179.966 C 96.588 179.444,96.699 179.200,96.293 179.200 C 95.966 179.200,95.470 179.474,95.192 179.810 M115.700 179.665 C 116.305 179.886,116.800 180.220,116.800 180.406 C 116.800 180.593,117.205 180.875,117.699 181.031 C 121.127 182.119,122.839 186.019,121.400 189.462 C 120.564 191.463,120.604 192.458,121.470 191.221 C 121.903 190.604,122.200 189.190,122.308 187.232 L 122.476 184.200 120.676 182.500 C 119.686 181.565,118.679 180.800,118.438 180.800 C 118.197 180.800,117.640 180.440,117.200 180.000 C 116.760 179.560,115.995 179.214,115.500 179.232 C 114.684 179.260,114.702 179.300,115.700 179.665 M92.160 181.700 C 89.713 183.543,86.073 188.257,85.378 190.483 C 85.221 190.987,84.846 191.755,84.546 192.189 C 83.579 193.586,83.820 198.177,84.900 198.930 C 85.628 199.438,85.671 199.562,85.124 199.579 C 84.752 199.591,84.359 199.742,84.252 199.916 C 84.144 200.090,84.673 200.161,85.428 200.073 C 87.086 199.879,87.177 199.425,85.700 198.714 C 82.016 196.941,86.904 185.902,93.233 181.700 C 93.979 181.205,94.311 180.800,93.972 180.800 C 93.633 180.800,92.818 181.205,92.160 181.700 M144.916 186.400 C 144.801 186.840,144.461 187.200,144.161 187.200 C 142.946 187.200,142.986 191.392,144.211 192.409 C 144.535 192.678,144.800 193.284,144.800 193.755 C 144.800 194.226,145.160 195.284,145.600 196.104 C 146.040 196.925,146.400 197.938,146.400 198.354 C 146.400 199.173,147.965 201.312,147.987 200.524 C 147.994 200.262,147.832 199.943,147.626 199.816 C 147.421 199.689,146.968 198.608,146.621 197.413 C 146.274 196.218,145.812 195.131,145.595 194.997 C 145.378 194.863,145.200 194.403,145.200 193.975 C 145.200 193.547,144.840 192.525,144.400 191.704 C 143.322 189.693,143.391 188.778,144.736 187.272 C 146.979 184.759,148.918 185.478,150.884 189.554 C 151.764 191.379,151.970 191.603,151.984 190.749 C 151.993 190.171,151.737 189.480,151.415 189.213 C 151.094 188.946,150.713 188.339,150.568 187.864 C 149.871 185.571,145.433 184.422,144.916 186.400 M161.686 187.273 C 160.835 188.380,160.414 189.360,160.441 190.173 L 160.482 191.400 160.794 190.084 C 161.268 188.083,163.166 186.000,164.515 186.000 C 166.260 186.000,167.600 187.528,167.606 189.527 C 167.611 190.884,167.719 191.235,168.000 190.800 C 170.442 187.022,164.451 183.675,161.686 187.273 M178.006 186.423 C 177.240 186.850,176.412 187.200,176.167 187.200 C 175.923 187.200,175.334 187.515,174.860 187.900 C 174.386 188.285,173.458 189.042,172.799 189.581 C 172.140 190.121,171.600 190.768,171.600 191.019 C 171.600 191.270,171.240 191.802,170.800 192.200 C 170.360 192.598,170.000 193.197,170.000 193.530 C 170.000 193.864,170.676 193.169,171.503 191.986 C 175.537 186.211,185.798 184.141,189.927 188.270 C 190.219 188.562,190.620 188.800,190.819 188.800 C 191.709 188.800,195.414 193.698,195.714 195.271 C 195.855 196.009,195.902 195.944,195.946 194.955 C 195.997 193.772,195.033 192.175,193.100 190.243 C 192.715 189.858,192.400 189.402,192.400 189.229 C 192.400 189.056,190.901 188.169,189.070 187.258 C 185.086 185.275,180.664 184.941,178.006 186.423 M199.300 186.745 C 197.718 188.099,197.487 190.495,198.787 192.056 C 199.729 193.187,199.912 192.246,198.987 191.024 C 197.730 189.361,199.628 185.982,201.800 186.016 C 203.507 186.043,205.679 189.252,206.526 193.000 C 206.641 193.505,206.724 193.329,206.754 192.521 C 206.803 191.154,205.312 187.996,203.912 186.507 C 202.736 185.255,200.932 185.348,199.300 186.745 M214.230 186.900 C 213.657 187.615,213.002 188.427,212.775 188.704 C 212.547 188.981,212.288 190.151,212.197 191.304 C 212.047 193.228,212.060 193.269,212.360 191.800 C 213.394 186.746,216.660 184.588,219.569 187.036 C 220.995 188.236,221.250 187.762,219.874 186.470 C 218.345 185.033,215.555 185.246,214.230 186.900 M230.231 186.768 C 229.615 187.410,229.208 188.175,229.324 188.468 C 229.480 188.858,229.545 188.833,229.568 188.375 C 229.672 186.328,233.016 185.514,235.027 187.047 C 236.638 188.276,236.889 187.845,235.338 186.513 C 233.778 185.172,231.658 185.278,230.231 186.768 M247.129 186.100 C 246.838 186.375,245.895 186.960,245.033 187.400 C 242.184 188.854,241.995 188.987,241.769 189.696 C 241.647 190.083,241.383 190.400,241.183 190.400 C 240.984 190.400,240.521 190.985,240.154 191.700 C 239.788 192.415,239.305 193.118,239.080 193.263 C 238.856 193.408,238.588 194.536,238.486 195.771 C 238.383 197.005,238.142 198.112,237.950 198.231 C 237.494 198.513,237.495 200.000,237.950 200.000 C 238.143 200.000,238.385 201.017,238.488 202.260 C 238.602 203.631,238.913 204.694,239.280 204.961 C 239.612 205.204,239.999 205.762,240.141 206.202 C 240.536 207.428,243.070 210.000,243.883 210.000 C 244.282 210.000,244.832 210.360,245.107 210.800 C 245.457 211.360,245.996 211.582,246.903 211.540 C 248.051 211.487,248.079 211.461,247.142 211.318 C 246.559 211.228,245.767 210.805,245.380 210.377 C 244.993 209.950,244.477 209.600,244.234 209.600 C 243.707 209.600,242.040 208.065,241.200 206.807 C 240.870 206.312,240.271 205.477,239.870 204.952 C 236.976 201.166,239.495 190.519,243.700 188.762 C 244.305 188.510,244.800 188.169,244.800 188.005 C 244.800 186.255,253.471 185.571,257.371 187.013 C 259.703 187.875,263.855 191.802,264.219 193.490 C 264.350 194.100,264.760 195.315,265.129 196.189 C 265.977 198.197,266.117 209.496,265.306 210.473 C 263.887 212.181,262.211 212.587,260.296 211.687 C 258.925 211.043,258.227 210.926,257.350 211.197 C 256.214 211.547,256.217 211.550,257.623 211.499 C 258.406 211.470,259.481 211.751,260.012 212.123 C 261.468 213.144,263.193 212.945,264.800 211.571 L 266.200 210.374 266.200 203.469 C 266.200 197.832,266.083 196.384,265.563 195.582 C 265.213 195.042,264.794 194.061,264.631 193.403 C 264.469 192.745,264.082 191.935,263.770 191.603 C 263.459 191.271,262.737 190.415,262.167 189.700 C 261.596 188.985,260.875 188.400,260.564 188.400 C 260.254 188.400,260.000 188.258,260.000 188.084 C 260.000 186.267,248.780 184.538,247.129 186.100 M268.554 187.078 C 267.067 188.701,266.892 189.718,267.798 191.454 C 268.126 192.084,268.396 192.932,268.398 193.337 C 268.399 193.742,268.760 194.531,269.200 195.091 C 270.101 196.237,270.297 195.426,269.404 194.246 C 266.635 190.589,269.213 184.344,272.581 186.551 C 273.841 187.376,275.196 189.479,275.199 190.611 C 275.199 191.057,275.456 191.787,275.769 192.234 C 276.081 192.680,276.530 193.665,276.766 194.423 C 277.194 195.798,277.195 195.797,277.024 194.014 C 276.929 193.025,276.574 192.024,276.227 191.770 C 275.882 191.518,275.600 190.938,275.600 190.482 C 275.600 186.265,271.232 184.155,268.554 187.078 M286.489 186.223 C 286.000 186.565,285.600 187.081,285.600 187.369 C 285.600 187.657,285.240 188.350,284.800 188.909 C 284.360 189.469,284.007 190.348,284.015 190.863 C 284.025 191.544,284.320 191.199,285.092 189.601 C 287.469 184.685,292.062 184.822,291.502 189.792 C 291.331 191.313,291.388 191.542,291.848 191.160 C 294.668 188.820,289.534 184.090,286.489 186.223 M302.821 186.174 C 302.559 186.490,301.805 186.867,301.145 187.012 C 300.486 187.157,299.849 187.528,299.730 187.838 C 299.612 188.147,299.258 188.400,298.945 188.400 C 298.631 188.400,298.257 188.715,298.114 189.100 C 297.970 189.485,297.526 190.035,297.126 190.323 C 296.727 190.610,296.400 191.032,296.400 191.260 C 296.400 191.487,296.040 192.131,295.600 192.691 C 295.033 193.412,294.818 194.246,294.860 195.554 L 294.920 197.400 295.160 195.800 C 295.678 192.346,299.177 187.960,302.026 187.193 C 302.873 186.965,303.674 186.603,303.807 186.389 C 305.219 184.104,317.600 188.154,317.600 190.901 C 317.600 191.141,317.876 191.642,318.214 192.015 C 319.006 192.891,319.677 197.057,319.269 198.578 C 318.656 200.870,317.060 201.346,309.400 201.517 C 305.660 201.601,302.426 201.837,302.212 202.042 C 301.638 202.595,303.465 205.692,304.977 206.728 C 307.586 208.516,309.925 207.944,314.353 204.437 C 316.696 202.582,318.382 202.782,319.091 205.000 L 319.602 206.600 319.365 205.003 C 318.930 202.075,316.641 201.805,313.626 204.327 C 312.622 205.167,311.485 205.971,311.100 206.115 C 310.715 206.258,310.400 206.561,310.400 206.787 C 310.400 207.705,306.367 207.243,305.105 206.182 C 304.153 205.381,302.400 202.745,302.400 202.115 C 302.400 202.052,305.618 202.000,309.551 202.000 C 315.420 202.000,316.791 201.892,317.200 201.400 C 317.474 201.070,317.945 200.800,318.247 200.800 C 319.226 200.800,320.559 197.362,320.071 196.095 C 319.840 195.493,319.525 194.370,319.373 193.600 C 319.220 192.830,318.759 191.771,318.348 191.246 C 317.937 190.721,317.600 190.091,317.600 189.846 C 317.600 189.284,315.021 187.201,314.321 187.197 C 314.035 187.196,313.260 186.837,312.600 186.400 C 311.061 185.380,303.623 185.209,302.821 186.174 M220.813 188.620 C 220.806 188.851,220.974 189.214,221.187 189.427 C 221.400 189.640,221.742 190.531,221.947 191.407 L 222.320 193.000 222.360 191.544 C 222.385 190.636,222.104 189.734,221.613 189.144 C 221.181 188.625,220.821 188.389,220.813 188.620 M228.408 190.591 C 228.129 190.926,227.840 192.055,227.765 193.100 C 227.645 194.780,227.665 194.838,227.940 193.600 C 228.112 192.830,228.480 191.780,228.758 191.266 C 229.358 190.160,229.130 189.721,228.408 190.591 M235.682 191.865 C 234.722 194.707,234.707 195.037,235.594 193.717 C 236.086 192.986,236.401 191.982,236.328 191.382 C 236.209 190.405,236.163 190.440,235.682 191.865 M304.754 192.102 C 302.859 193.728,301.535 196.400,302.624 196.400 C 302.967 196.400,303.144 196.232,303.017 196.028 C 302.891 195.823,302.947 195.557,303.142 195.436 C 303.337 195.315,303.601 194.718,303.729 194.108 C 303.881 193.378,304.479 192.699,305.480 192.118 C 306.316 191.632,306.730 191.228,306.400 191.220 C 306.070 191.211,305.329 191.608,304.754 192.102 M308.800 191.800 C 309.074 192.130,309.480 192.400,309.703 192.400 C 310.449 192.400,312.000 194.430,312.000 195.407 C 312.000 196.352,311.919 196.375,308.100 196.507 L 304.200 196.642 308.195 196.621 C 311.739 196.602,312.206 196.517,312.331 195.868 C 312.598 194.471,312.006 193.313,310.486 192.259 C 308.791 191.085,308.036 190.879,308.800 191.800 M159.190 192.626 C 158.976 193.190,158.800 194.068,158.800 194.577 C 158.800 195.086,158.544 195.714,158.231 195.974 C 157.918 196.234,157.536 197.198,157.380 198.117 C 157.225 199.035,156.654 200.369,156.111 201.081 C 155.569 201.792,155.197 202.591,155.286 202.857 C 155.535 203.605,157.021 201.240,157.708 199.000 C 158.482 196.479,159.154 194.561,159.846 192.900 C 160.172 192.117,160.227 191.600,159.984 191.600 C 159.762 191.600,159.405 192.062,159.190 192.626 M152.000 192.462 C 152.000 192.820,152.356 193.897,152.791 194.856 C 153.371 196.133,153.585 196.359,153.591 195.699 C 153.596 195.203,153.240 194.125,152.800 193.304 C 152.360 192.484,152.000 192.105,152.000 192.462 M167.242 192.600 C 167.205 193.040,166.910 193.749,166.587 194.176 C 166.264 194.604,165.999 195.324,165.997 195.776 C 165.996 196.229,165.637 197.140,165.200 197.800 C 164.763 198.460,164.403 199.270,164.400 199.600 C 164.397 199.930,164.146 200.678,163.841 201.261 C 163.537 201.845,163.064 203.015,162.792 203.861 C 162.519 204.708,162.114 205.629,161.891 205.910 C 161.668 206.190,161.590 206.523,161.716 206.650 C 162.192 207.125,162.739 206.344,162.996 204.821 C 163.143 203.955,163.510 203.041,163.812 202.790 C 164.114 202.540,164.478 201.551,164.622 200.594 C 164.765 199.637,165.111 198.766,165.391 198.659 C 165.670 198.552,166.025 197.774,166.179 196.932 C 166.333 196.089,166.727 194.984,167.054 194.476 C 167.382 193.968,167.573 193.158,167.479 192.676 C 167.325 191.884,167.303 191.876,167.242 192.600 M283.100 193.426 C 282.715 194.200,282.408 195.230,282.418 195.716 C 282.430 196.336,282.617 196.121,283.044 195.000 C 284.304 191.689,284.330 190.955,283.100 193.426 M290.256 193.669 C 289.847 194.536,289.608 195.341,289.724 195.458 C 290.097 195.830,291.267 193.676,291.131 192.869 C 291.031 192.275,290.825 192.463,290.256 193.669 M98.440 193.823 C 97.736 195.015,97.599 195.907,97.595 199.323 C 97.588 203.871,97.386 205.043,96.552 205.363 C 95.974 205.585,91.600 202.893,91.600 202.315 C 91.600 202.142,91.364 202.000,91.075 202.000 C 90.787 202.000,90.164 201.640,89.692 201.200 C 88.800 200.368,86.539 200.053,87.017 200.827 C 87.162 201.062,87.572 201.143,87.928 201.006 C 88.284 200.870,88.473 200.860,88.348 200.985 C 88.008 201.325,97.014 210.400,97.692 210.400 C 98.293 210.400,99.600 209.182,99.600 208.622 C 99.600 208.450,99.137 208.611,98.572 208.982 C 97.455 209.713,96.676 209.435,95.111 207.744 C 94.732 207.335,93.697 206.249,92.811 205.331 C 90.268 202.698,91.177 202.588,94.334 205.147 C 97.059 207.355,98.312 205.732,98.370 199.920 C 98.430 193.792,99.532 191.535,101.566 193.372 C 103.474 195.095,104.352 196.004,105.800 197.753 C 106.680 198.817,107.715 199.978,108.100 200.332 C 108.485 200.687,108.800 201.131,108.800 201.318 C 108.800 202.459,113.071 206.790,114.200 206.795 C 115.495 206.800,117.600 204.679,117.600 203.369 C 117.600 202.998,117.938 202.133,118.351 201.447 C 118.765 200.761,119.228 199.499,119.380 198.643 C 119.533 197.786,119.915 196.828,120.229 196.514 C 120.543 196.200,120.782 195.281,120.759 194.471 L 120.718 193.000 120.410 194.298 C 120.241 195.011,119.919 195.821,119.696 196.098 C 119.473 196.374,119.164 197.364,119.010 198.298 C 118.856 199.232,118.580 200.089,118.396 200.203 C 118.212 200.316,117.777 201.262,117.429 202.305 C 115.541 207.967,114.335 207.699,108.449 200.312 C 101.916 192.111,100.132 190.955,98.440 193.823 M178.823 193.383 C 177.450 194.396,175.635 196.978,175.612 197.949 C 175.602 198.392,175.716 198.402,176.200 198.000 C 176.530 197.726,176.800 197.143,176.800 196.705 C 176.800 193.735,183.709 191.443,186.100 193.619 C 188.460 195.766,188.732 196.170,188.887 197.752 C 189.362 202.612,186.961 205.600,182.583 205.600 C 181.162 205.600,180.000 205.425,180.000 205.210 C 180.000 204.996,179.449 204.536,178.776 204.188 C 177.981 203.776,177.277 202.913,176.766 201.721 C 176.334 200.712,175.874 199.993,175.744 200.123 C 175.337 200.530,177.237 203.992,178.131 204.470 C 178.600 204.721,179.225 205.168,179.520 205.463 C 181.886 207.828,187.992 205.128,189.325 201.127 C 189.973 199.181,189.364 195.256,188.316 194.629 C 188.252 194.591,187.601 194.074,186.869 193.480 C 184.991 191.955,180.826 191.905,178.823 193.383 M247.708 193.834 C 242.658 198.068,245.466 205.991,252.019 205.997 C 254.800 206.000,255.463 205.696,257.656 203.413 C 258.897 202.121,259.355 200.516,259.095 198.373 C 258.958 197.250,258.916 197.353,258.864 198.937 C 258.823 200.191,258.518 201.232,258.000 201.891 C 257.560 202.450,257.200 203.154,257.200 203.454 C 257.200 203.754,256.954 204.000,256.654 204.000 C 256.354 204.000,255.650 204.360,255.091 204.800 C 253.739 205.864,249.951 205.924,248.842 204.900 C 248.425 204.515,247.645 203.835,247.109 203.390 C 245.350 201.928,245.328 196.981,247.072 195.127 C 248.802 193.289,249.412 192.996,251.986 192.771 L 254.600 192.541 252.000 192.478 C 249.565 192.420,249.292 192.506,247.708 193.834 M255.400 193.600 C 255.798 194.040,256.354 194.400,256.635 194.400 C 256.916 194.400,257.255 194.744,257.389 195.164 C 257.666 196.039,258.800 197.109,258.800 196.496 C 258.800 195.965,255.624 192.800,255.091 192.800 C 254.863 192.800,255.002 193.160,255.400 193.600 M199.660 194.301 C 199.627 195.017,199.960 196.275,200.400 197.096 C 200.974 198.166,201.200 198.361,201.200 197.783 C 201.200 197.340,200.945 196.615,200.634 196.171 C 200.323 195.726,199.990 194.831,199.894 194.182 L 199.720 193.000 199.660 194.301 M222.400 193.541 C 222.400 193.822,222.611 194.446,222.869 194.926 C 223.128 195.407,223.484 196.340,223.660 197.000 C 223.914 197.946,223.951 197.789,223.835 196.259 C 223.707 194.558,222.400 192.083,222.400 193.541 M124.790 194.626 C 124.576 195.190,124.400 195.891,124.400 196.183 C 124.400 196.475,124.153 196.809,123.851 196.925 C 123.550 197.041,123.179 197.631,123.027 198.236 C 122.875 198.842,122.402 199.780,121.975 200.322 C 121.549 200.864,121.200 201.644,121.200 202.054 C 121.200 202.464,121.022 202.800,120.805 202.800 C 120.588 202.800,120.134 203.385,119.795 204.100 C 118.875 206.042,118.323 206.858,116.895 208.389 C 116.183 209.153,115.600 209.918,115.600 210.089 C 115.600 210.825,113.248 210.382,113.000 209.600 C 112.860 209.160,112.488 208.800,112.173 208.800 C 111.858 208.800,111.600 208.601,111.600 208.358 C 111.600 207.969,110.953 207.034,109.115 204.765 C 108.832 204.416,108.407 203.796,108.171 203.389 C 107.936 202.981,107.522 202.574,107.253 202.484 C 106.580 202.260,109.589 206.577,111.726 208.900 C 114.714 212.150,117.337 210.332,121.682 202.000 C 122.518 200.395,122.885 199.724,123.540 198.600 C 124.043 197.737,124.660 196.390,125.282 194.801 L 125.673 193.803 126.436 194.746 C 127.027 195.475,127.200 196.330,127.200 198.524 C 127.200 200.748,127.305 201.255,127.686 200.874 C 128.547 200.013,128.284 196.322,127.258 194.882 C 126.156 193.334,125.315 193.247,124.790 194.626 M211.006 193.990 C 210.873 194.205,210.688 195.330,210.595 196.490 C 210.459 198.170,210.489 198.315,210.738 197.200 C 210.911 196.430,211.265 195.407,211.526 194.926 C 212.198 193.687,211.722 192.831,211.006 193.990 M206.803 194.620 C 206.801 195.071,207.007 195.647,207.260 195.900 C 207.512 196.152,207.852 197.043,208.014 197.880 L 208.308 199.400 208.351 197.800 C 208.378 196.811,208.091 195.741,207.600 195.000 C 206.921 193.975,206.805 193.920,206.803 194.620 M169.086 196.022 C 168.192 198.086,168.236 200.604,169.200 202.600 C 170.122 204.509,170.248 203.604,169.396 201.190 C 168.852 199.646,168.857 199.249,169.452 197.128 C 170.233 194.347,170.050 193.796,169.086 196.022 M226.808 195.791 C 226.529 196.126,226.240 197.255,226.165 198.300 C 226.045 199.980,226.065 200.038,226.340 198.800 C 226.512 198.030,226.880 196.980,227.158 196.466 C 227.758 195.360,227.530 194.921,226.808 195.791 M234.442 195.800 C 234.405 196.240,234.110 196.949,233.787 197.376 C 233.464 197.804,233.203 198.434,233.207 198.776 C 233.211 199.133,233.566 198.849,234.037 198.115 C 234.495 197.399,234.782 196.425,234.684 195.915 C 234.533 195.127,234.500 195.111,234.442 195.800 M277.200 196.214 C 277.200 196.332,277.450 196.827,277.755 197.314 C 278.060 197.801,278.428 198.873,278.572 199.695 C 278.792 200.946,279.685 202.000,280.526 202.000 C 280.625 202.000,280.906 201.201,281.152 200.224 C 281.398 199.247,281.780 198.336,282.000 198.200 C 282.220 198.064,282.394 197.648,282.387 197.276 C 282.363 196.084,280.800 198.351,280.800 199.578 C 280.800 200.177,280.680 200.787,280.532 200.934 C 280.080 201.386,278.800 199.930,278.800 198.964 C 278.800 197.718,278.110 196.000,277.610 196.000 C 277.384 196.000,277.200 196.096,277.200 196.214 M288.712 197.535 C 288.333 198.317,288.094 199.027,288.180 199.113 C 288.469 199.403,289.668 197.245,289.533 196.676 C 289.459 196.362,289.095 196.743,288.712 197.535 M196.203 197.200 C 196.797 198.941,196.906 207.647,196.354 209.329 C 195.438 212.122,193.243 213.076,190.869 211.714 C 189.800 211.100,189.446 211.084,187.536 211.566 C 185.205 212.154,181.296 212.282,179.400 211.832 C 178.262 211.562,178.240 211.580,178.976 212.174 C 180.034 213.027,185.910 213.055,187.024 212.213 C 188.053 211.434,190.248 211.426,190.545 212.200 C 191.105 213.659,194.675 212.965,195.997 211.140 L 197.200 209.480 197.200 203.389 C 197.200 198.180,197.103 197.218,196.531 196.749 C 195.927 196.254,195.895 196.298,196.203 197.200 M270.000 197.077 C 270.000 197.553,270.248 198.191,270.551 198.494 C 270.854 198.797,271.234 199.665,271.396 200.423 C 271.557 201.180,271.919 202.070,272.200 202.400 C 272.481 202.730,272.842 203.630,273.002 204.400 C 273.162 205.170,273.497 206.050,273.746 206.356 C 273.996 206.663,274.382 207.548,274.604 208.324 C 274.826 209.101,275.258 209.819,275.564 209.921 C 275.988 210.063,275.963 209.882,275.460 209.164 C 275.097 208.646,274.800 207.893,274.800 207.490 C 274.800 207.088,274.457 206.093,274.037 205.279 C 272.736 202.754,271.600 200.133,271.600 199.655 C 271.600 199.403,271.240 198.525,270.800 197.704 C 270.173 196.535,270.000 196.399,270.000 197.077 M100.429 197.854 C 99.711 198.767,99.611 199.395,99.683 202.554 L 99.766 206.200 99.898 202.499 C 100.091 197.088,102.155 195.955,104.804 199.806 C 105.468 200.770,106.188 201.669,106.405 201.803 C 107.168 202.275,106.789 201.229,105.795 200.121 C 105.243 199.504,104.346 198.505,103.802 197.900 C 102.559 196.518,101.492 196.503,100.429 197.854 M153.730 197.600 C 154.184 199.813,155.163 201.902,155.182 200.699 C 155.192 200.093,154.823 198.923,154.362 198.099 C 153.722 196.953,153.573 196.836,153.730 197.600 M216.880 199.300 C 216.448 200.015,215.973 201.451,215.824 202.491 C 215.675 203.531,215.396 204.479,215.204 204.598 C 215.011 204.717,214.654 205.756,214.409 206.907 C 213.409 211.609,210.375 213.839,207.444 212.027 C 206.650 211.536,206.000 210.953,206.000 210.730 C 206.000 210.508,205.640 209.869,205.200 209.309 C 204.760 208.750,204.400 207.939,204.400 207.507 C 204.400 207.074,204.146 206.154,203.836 205.460 C 203.526 204.767,203.180 203.930,203.067 203.600 C 202.951 203.259,202.850 203.436,202.832 204.011 C 202.814 204.567,203.043 205.377,203.339 205.811 C 203.636 206.245,203.989 207.173,204.124 207.873 C 205.086 212.866,211.408 215.041,213.259 211.016 C 213.465 210.567,213.894 209.750,214.211 209.200 C 214.529 208.650,214.791 207.727,214.794 207.149 C 214.797 206.571,215.063 205.880,215.384 205.613 C 215.706 205.346,216.089 204.064,216.236 202.764 C 216.383 201.464,216.648 200.400,216.825 200.400 C 217.001 200.400,217.275 199.995,217.432 199.500 C 217.709 198.629,217.728 198.625,218.031 199.400 C 218.302 200.094,218.348 200.054,218.372 199.100 C 218.409 197.634,217.840 197.711,216.880 199.300 M294.284 198.800 C 294.169 199.239,294.238 199.700,294.438 199.823 C 294.637 199.946,294.800 199.587,294.800 199.024 C 294.800 197.798,294.572 197.699,294.284 198.800 M224.000 199.107 C 224.000 199.941,225.449 201.485,225.852 201.081 C 225.988 200.945,225.627 200.272,225.050 199.586 C 224.180 198.553,224.000 198.471,224.000 199.107 M201.200 199.692 C 201.200 200.275,201.393 200.872,201.628 201.017 C 201.863 201.163,202.212 201.668,202.403 202.141 C 202.623 202.686,202.759 202.775,202.775 202.385 C 202.789 202.046,202.440 201.063,202.000 200.200 C 201.262 198.753,201.200 198.713,201.200 199.692 M209.247 199.561 C 208.723 199.958,208.363 200.476,208.447 200.711 C 208.539 200.968,208.975 200.834,209.536 200.377 C 210.758 199.380,210.489 198.620,209.247 199.561 M287.654 200.224 C 287.625 200.676,287.336 201.396,287.013 201.824 C 286.690 202.251,286.423 202.870,286.419 203.200 C 286.416 203.530,286.784 203.222,287.237 202.515 C 287.695 201.799,287.982 200.825,287.884 200.315 C 287.728 199.499,287.703 199.489,287.654 200.224 M218.418 201.471 C 218.408 202.171,218.651 202.993,218.957 203.300 C 219.263 203.606,219.617 204.204,219.742 204.628 C 219.880 205.092,219.910 205.001,219.818 204.400 C 219.734 203.850,219.388 202.680,219.050 201.800 L 218.435 200.200 218.418 201.471 M232.511 201.479 C 232.242 202.095,231.763 203.410,231.447 204.400 C 229.347 210.978,228.246 212.509,225.615 212.509 C 223.795 212.509,221.862 211.087,221.472 209.463 C 220.960 207.330,220.035 205.377,220.021 206.400 C 220.004 207.623,221.477 210.700,222.701 211.998 C 224.927 214.357,229.560 212.554,230.212 209.074 C 230.362 208.279,230.721 207.432,231.011 207.191 C 231.300 206.951,231.661 205.999,231.812 205.077 C 231.963 204.155,232.352 203.100,232.676 202.733 C 232.999 202.366,233.205 201.682,233.132 201.212 C 233.011 200.430,232.958 200.453,232.511 201.479 M83.266 203.022 C 82.524 206.340,82.152 218.790,82.761 219.928 C 83.444 221.204,106.001 221.240,109.600 219.971 C 111.585 219.271,111.644 219.220,110.200 219.442 C 106.602 219.996,83.487 220.064,83.143 219.521 C 82.604 218.672,82.753 212.032,83.428 206.831 C 84.140 201.349,84.060 199.474,83.266 203.022 M294.856 202.646 C 294.815 204.148,295.013 204.963,295.600 205.709 C 296.040 206.269,296.400 206.921,296.400 207.160 C 296.400 207.398,296.760 207.818,297.200 208.093 C 297.640 208.368,298.000 208.790,298.000 209.032 C 298.000 209.274,298.450 209.677,299.000 209.927 C 299.550 210.178,300.000 210.552,300.000 210.760 C 300.000 210.967,300.552 211.258,301.227 211.406 C 301.902 211.554,302.937 211.927,303.527 212.235 C 305.176 213.096,312.128 213.014,312.851 212.125 C 313.341 211.523,313.314 211.488,312.600 211.803 C 309.987 212.955,302.486 212.040,300.574 210.336 C 300.120 209.931,299.569 209.600,299.349 209.600 C 298.948 209.600,297.668 208.049,296.220 205.807 C 295.791 205.143,295.321 203.700,295.176 202.600 L 294.913 200.600 294.856 202.646 M148.054 202.056 C 148.025 202.636,148.354 203.536,148.787 204.056 C 149.399 204.790,149.576 204.855,149.587 204.349 C 149.594 203.991,149.341 203.483,149.024 203.220 C 148.707 202.957,148.372 202.350,148.278 201.871 C 148.134 201.129,148.101 201.156,148.054 202.056 M126.753 203.600 C 126.530 205.240,124.271 209.730,122.930 211.200 C 122.629 211.530,122.035 212.268,121.610 212.840 C 120.797 213.933,115.643 217.600,114.920 217.600 C 114.688 217.600,114.283 217.859,114.020 218.176 C 113.757 218.493,113.150 218.828,112.671 218.922 C 111.836 219.084,111.839 219.093,112.737 219.146 C 113.252 219.175,114.131 218.840,114.691 218.400 C 115.250 217.960,115.926 217.600,116.192 217.600 C 116.458 217.600,117.002 217.240,117.400 216.800 C 117.798 216.360,118.372 216.000,118.675 216.000 C 118.977 216.000,119.329 215.730,119.455 215.400 C 119.582 215.070,119.905 214.800,120.173 214.800 C 120.774 214.800,122.400 213.116,122.400 212.494 C 122.400 212.244,122.626 211.896,122.901 211.720 C 123.341 211.439,124.105 210.343,125.911 207.400 C 126.895 205.797,127.237 204.615,127.119 203.223 C 127.000 201.824,126.994 201.831,126.753 203.600 M285.500 205.455 C 284.535 207.354,284.631 208.085,285.638 206.512 C 286.092 205.804,286.404 204.966,286.332 204.650 C 286.255 204.314,285.910 204.648,285.500 205.455 M170.000 204.688 C 170.000 206.533,175.515 211.646,177.422 211.568 C 178.009 211.545,177.929 211.438,177.100 211.135 C 176.495 210.914,176.000 210.568,176.000 210.367 C 176.000 210.165,175.803 210.000,175.562 210.000 C 174.671 210.000,172.731 208.266,171.385 206.268 C 170.623 205.136,170.000 204.425,170.000 204.688 M149.649 206.000 C 149.625 206.550,149.963 207.540,150.400 208.200 C 150.858 208.892,151.196 209.141,151.197 208.789 C 151.199 208.453,150.952 207.823,150.648 207.389 C 150.345 206.955,150.005 206.240,149.894 205.800 C 149.727 205.135,149.685 205.169,149.649 206.000 M318.832 207.039 C 318.779 207.769,315.954 210.457,314.636 211.031 C 313.570 211.495,313.524 211.571,314.300 211.584 C 314.795 211.593,315.560 211.240,316.000 210.800 C 316.440 210.360,316.980 210.000,317.200 210.000 C 317.420 210.000,317.600 209.827,317.600 209.616 C 317.600 209.404,317.979 208.878,318.443 208.446 C 318.907 208.013,319.191 207.421,319.075 207.130 C 318.958 206.838,318.849 206.797,318.832 207.039 M161.200 207.801 C 161.200 208.132,160.840 209.075,160.400 209.896 C 159.960 210.716,159.600 211.671,159.600 212.018 C 159.600 212.364,159.336 212.996,159.013 213.424 C 158.256 214.424,158.248 214.833,158.989 214.549 C 159.313 214.424,159.696 213.665,159.840 212.861 C 159.984 212.058,160.356 211.107,160.668 210.750 C 161.258 210.072,161.893 207.200,161.452 207.200 C 161.314 207.200,161.200 207.471,161.200 207.801 M284.446 208.452 C 284.242 211.318,279.707 213.187,277.338 211.380 C 276.602 210.818,276.000 210.515,276.000 210.704 C 276.000 211.493,278.427 212.800,279.892 212.800 C 281.398 212.800,281.546 212.704,284.136 210.032 C 284.541 209.615,284.787 208.941,284.683 208.536 C 284.532 207.954,284.483 207.936,284.446 208.452 M151.234 211.138 C 151.193 213.241,150.132 215.192,149.014 215.222 C 145.006 215.329,143.200 216.020,143.200 217.444 C 143.200 217.745,143.613 217.550,144.182 216.982 C 144.981 216.183,145.564 216.000,147.312 216.000 C 150.381 216.000,152.456 213.353,151.606 210.522 C 151.299 209.499,151.266 209.554,151.234 211.138 M248.676 212.006 C 249.653 213.045,256.000 212.983,256.000 211.935 C 256.000 211.663,255.600 211.615,254.900 211.803 C 253.486 212.185,250.932 212.183,249.400 211.800 C 248.440 211.560,248.295 211.601,248.676 212.006 M158.046 216.007 C 158.021 216.341,157.176 217.556,156.169 218.707 C 155.162 219.858,154.516 220.800,154.733 220.800 C 154.951 220.800,155.596 220.215,156.167 219.500 C 156.737 218.785,157.489 217.900,157.838 217.533 C 158.186 217.166,158.386 216.536,158.282 216.133 C 158.152 215.630,158.078 215.591,158.046 216.007 M143.231 219.800 C 143.156 222.162,150.913 223.565,153.256 221.613 C 154.390 220.668,154.108 220.583,152.546 221.398 C 149.795 222.832,144.369 221.817,143.538 219.713 C 143.284 219.070,143.254 219.079,143.231 219.800 " stroke="none" fill="#38ace4" fill-rule="evenodd"></path></g></svg>