<svg width="16" height="16" viewBox="0 0 16 16" fill="none" xmlns="http://www.w3.org/2000/svg">
<path d="M0 1.27979V14.7198H16V1.27979H0ZM0.64 1.91979H15.36V14.0798H0.64V1.91979ZM1.28 2.55979V9.84979C1.27125 9.89229 1.27125 9.93729 1.28 9.97979V13.4398H14.72V11.8898C14.7287 11.8473 14.7287 11.8023 14.72 11.7598V2.55979H1.28ZM1.92 3.19979H14.08V11.0598L11.11 8.08979C11.0387 8.01979 10.9387 7.98604 10.84 7.99979C10.7687 8.00729 10.7012 8.03979 10.65 8.08979L9.29 9.44979L6 5.85979C5.92625 5.77979 5.8175 5.74104 5.71 5.75979C5.64625 5.76854 5.5875 5.79729 5.54 5.83979L1.92 9.17979V3.19979ZM11.2 4.79979C10.67 4.79979 10.24 5.22979 10.24 5.75979C10.24 6.28979 10.67 6.71979 11.2 6.71979C11.73 6.71979 12.16 6.28979 12.16 5.75979C12.16 5.22979 11.73 4.79979 11.2 4.79979ZM5.74 6.53979L8.83 9.90979L8.09 10.6498C7.9625 10.7773 7.9625 10.9823 8.09 11.1098C8.2175 11.2373 8.4225 11.2373 8.55 11.1098L9.46 10.1898C9.505 10.1623 9.5425 10.1248 9.57 10.0798L10.88 8.77979L14.08 11.9798V12.7998H1.92V10.0698L5.74 6.53979Z" fill="#1E467D"/>
</svg>
