<svg width="16" height="16" viewBox="0 0 16 16" fill="none" xmlns="http://www.w3.org/2000/svg">
<path d="M7.99996 0.959961C7.70093 0.959961 7.1496 1.02148 6.67434 1.42746C6.52754 1.53862 6.1996 1.82762 5.72371 2.23996H3.51996C3.43509 2.23997 3.35371 2.27369 3.2937 2.3337C3.23369 2.39371 3.19997 2.47509 3.19996 2.55996V4.46809C2.07078 5.46687 1.06684 6.36121 1.06684 6.36121C1.03321 6.39124 1.00631 6.42802 0.987892 6.46917C0.969474 6.51031 0.959956 6.55488 0.959961 6.59996V14.72C0.959969 14.8048 0.993686 14.8862 1.0537 14.9462C1.11371 15.0062 1.19509 15.04 1.27996 15.04H14.72C14.8048 15.04 14.8862 15.0062 14.9462 14.9462C15.0062 14.8862 15.04 14.8048 15.04 14.72V6.59996C15.04 6.55488 15.0304 6.51031 15.012 6.46917C14.9936 6.42802 14.9667 6.39124 14.9331 6.36121C14.9331 6.36121 13.9292 5.46665 12.8 4.46809V2.55996C12.8 2.47509 12.7662 2.39371 12.7062 2.3337C12.6462 2.27369 12.5648 2.23997 12.48 2.23996H10.2568C9.7989 1.82795 9.47114 1.5375 9.32496 1.42684C8.84986 1.02142 8.29884 0.959961 7.99996 0.959961ZM7.99996 1.59996C8.20474 1.59996 8.60365 1.6508 8.91184 1.91496C8.91711 1.91951 8.92253 1.92389 8.92809 1.92809C8.9469 1.94218 9.18321 2.15283 9.28434 2.23996H6.70746C6.80936 2.1531 7.05311 1.94211 7.07184 1.92809C7.07739 1.92389 7.08281 1.91951 7.08809 1.91496C7.39627 1.6508 7.79518 1.59996 7.99996 1.59996ZM3.83996 2.87996H5.75621C5.8061 2.89215 5.85819 2.89215 5.90809 2.87996H10.0843C10.1209 2.88638 10.1584 2.88638 10.195 2.87996H12.16V4.61371V8.49371L10.3556 9.91371C10.0154 9.64657 9.39413 9.16115 9.31996 9.10184C8.82696 8.70728 8.2995 8.63996 7.99996 8.63996C7.67687 8.63996 7.17564 8.73768 6.69059 9.09371C6.60249 9.15825 5.96075 9.66434 5.64246 9.91246L3.83996 8.49371V4.65496C3.84481 4.62306 3.84481 4.59061 3.83996 4.55871V2.87996ZM5.11996 4.47996C5.07756 4.47936 5.03546 4.4872 4.99611 4.50301C4.95676 4.51882 4.92094 4.5423 4.89074 4.57207C4.86055 4.60184 4.83657 4.63732 4.8202 4.67645C4.80383 4.71557 4.7954 4.75755 4.7954 4.79996C4.7954 4.84237 4.80383 4.88435 4.8202 4.92348C4.83657 4.9626 4.86055 4.99808 4.89074 5.02785C4.92094 5.05763 4.95676 5.0811 4.99611 5.09691C5.03546 5.11273 5.07756 5.12056 5.11996 5.11996H10.88C10.9224 5.12056 10.9645 5.11273 11.0038 5.09691C11.0432 5.0811 11.079 5.05763 11.1092 5.02785C11.1394 4.99808 11.1634 4.9626 11.1797 4.92348C11.1961 4.88435 11.2045 4.84237 11.2045 4.79996C11.2045 4.75755 11.1961 4.71557 11.1797 4.67645C11.1634 4.63732 11.1394 4.60184 11.1092 4.57207C11.079 4.5423 11.0432 4.51882 11.0038 4.50301C10.9645 4.4872 10.9224 4.47936 10.88 4.47996H5.11996ZM3.19996 5.32371V7.98934L1.60809 6.73621C1.68441 6.66818 2.46382 5.97632 3.19996 5.32371ZM12.8 5.32371C13.5362 5.97639 14.3158 6.66902 14.3918 6.73684L12.8 7.98996V5.32371ZM5.11996 6.07996C5.07756 6.07936 5.03546 6.0872 4.99611 6.10301C4.95676 6.11882 4.92094 6.1423 4.89074 6.17207C4.86055 6.20184 4.83657 6.23732 4.8202 6.27645C4.80383 6.31557 4.7954 6.35755 4.7954 6.39996C4.7954 6.44237 4.80383 6.48435 4.8202 6.52348C4.83657 6.5626 4.86055 6.59808 4.89074 6.62785C4.92094 6.65763 4.95676 6.6811 4.99611 6.69691C5.03546 6.71273 5.07756 6.72056 5.11996 6.71996H8.63996C8.68236 6.72056 8.72446 6.71273 8.76381 6.69691C8.80316 6.6811 8.83898 6.65763 8.86918 6.62785C8.89938 6.59808 8.92336 6.5626 8.93972 6.52348C8.95609 6.48435 8.96452 6.44237 8.96452 6.39996C8.96452 6.35755 8.95609 6.31557 8.93972 6.27645C8.92336 6.23732 8.89938 6.20184 8.86918 6.17207C8.83898 6.1423 8.80316 6.11882 8.76381 6.10301C8.72446 6.0872 8.68236 6.07936 8.63996 6.07996H5.11996ZM1.59996 7.54496L5.12309 10.3181C4.60177 10.7263 4.36755 10.9057 3.73871 11.4C2.64789 12.2572 1.95571 12.8028 1.59996 13.0831V7.54496ZM14.4 7.54496V13.0843C13.9337 12.719 12.3227 11.4565 10.8743 10.3206L14.4 7.54496ZM7.99996 9.27996C8.20474 9.27996 8.57328 9.32439 8.91996 9.60184C9.35389 9.94885 14.2309 13.7651 14.4 13.8975V14.4H1.59996V13.8968C1.68767 13.8278 2.84218 12.9186 4.13434 11.9031C5.47464 10.8497 6.89729 9.73601 7.06934 9.60996C7.42396 9.34967 7.81873 9.27996 7.99996 9.27996Z" fill="#1E467D"/>
</svg>
