<svg width="16" height="16" viewBox="0 0 16 16" fill="none" xmlns="http://www.w3.org/2000/svg">
<path d="M2.24023 0.640137V15.3601H13.7602V4.93139L9.33898 0.640137H2.24023ZM2.88023 1.28014H8.96023V5.44014H13.1202V14.7201H2.88023V1.28014ZM9.60023 1.78514L12.7065 4.80014H9.60023V1.78514ZM7.60648 6.36014C7.36648 6.36014 7.11773 6.49639 7.00898 6.69889C6.89898 6.90014 6.89148 7.11639 6.91898 7.34139C6.96148 7.69639 7.12273 8.09764 7.33148 8.50889C7.22773 8.85889 7.17773 9.16389 7.02148 9.53764C6.82273 10.0139 6.57898 10.3914 6.34523 10.7876C6.04023 10.9301 5.65523 11.0576 5.43023 11.2051C5.17773 11.3714 4.97773 11.5201 4.86023 11.7564C4.80273 11.8739 4.77273 12.0414 4.83023 12.1926C4.88773 12.3439 5.00773 12.4426 5.13148 12.5064C5.39398 12.6451 5.69648 12.5589 5.91523 12.4114C6.13398 12.2639 6.32898 12.0476 6.52523 11.7839C6.62398 11.6501 6.70273 11.4339 6.80023 11.2776C7.11398 11.1389 7.33648 10.9951 7.69273 10.8726C8.17398 10.7064 8.60273 10.6364 9.05273 10.5389C9.42898 10.7926 9.82899 10.9901 10.2665 10.9901C10.514 10.9901 10.7052 10.9789 10.8915 10.8776C11.079 10.7764 11.1915 10.5326 11.1915 10.3464C11.1915 10.1951 11.1252 10.0339 11.0202 9.93014C10.914 9.82639 10.789 9.77139 10.6602 9.73639C10.4052 9.66764 10.1152 9.67264 9.78148 9.70639C9.60523 9.72514 9.36898 9.81889 9.17273 9.85514C9.14648 9.83514 9.12148 9.82639 9.09523 9.80389C8.69648 9.46014 8.32273 8.98514 8.04523 8.51264C8.02898 8.48389 8.03148 8.46389 8.01523 8.43514C8.08273 8.18264 8.21523 7.88889 8.24523 7.66764C8.28648 7.36139 8.29523 7.09389 8.22148 6.84889C8.18398 6.72639 8.12148 6.60264 8.01273 6.50764C7.90398 6.41264 7.75023 6.36014 7.60648 6.36014ZM7.58023 6.99764C7.58398 6.99764 7.59023 7.00014 7.59523 7.00139C7.59648 7.00389 7.59898 7.00264 7.60898 7.03389C7.62648 7.09264 7.61648 7.25889 7.61023 7.40639C7.60273 7.36889 7.55898 7.29889 7.55523 7.26514C7.53648 7.11639 7.56023 7.02139 7.57023 7.00514C7.57273 6.99889 7.57648 6.99764 7.58023 6.99764ZM7.77398 9.24264C7.97148 9.52639 8.19023 9.79139 8.43523 10.0351C8.10773 10.1226 7.81398 10.1539 7.48398 10.2676C7.41398 10.2914 7.37398 10.3251 7.30523 10.3501C7.40273 10.1464 7.52398 9.99514 7.61148 9.78514C7.69148 9.59389 7.70523 9.43264 7.77398 9.24264Z" fill="#1E467D"/>
</svg>
