<svg width="16" height="16" viewBox="0 0 16 16" fill="none" xmlns="http://www.w3.org/2000/svg">
<path d="M1.27979 1.27979V14.7198H14.7198V1.27979H1.27979ZM1.91979 1.91979H3.19979V2.87979H1.91979V1.91979ZM3.83979 1.91979H12.1598V14.0798H3.83979V1.91979ZM12.7998 1.91979H14.0798V2.87979H12.7998V1.91979ZM1.91979 3.51979H3.19979V4.47979H1.91979V3.51979ZM12.7998 3.51979H14.0798V4.47979H12.7998V3.51979ZM1.91979 5.11979H3.19979V6.07979H1.91979V5.11979ZM12.7998 5.11979H14.0798V6.07979H12.7998V5.11979ZM6.33979 5.46979C6.18729 5.49854 6.07729 5.63354 6.07979 5.78979V10.2098C6.07854 10.3248 6.13979 10.431 6.23854 10.4885C6.33729 10.5473 6.45979 10.5473 6.55979 10.4898L10.3998 8.27979C10.501 8.22354 10.5648 8.11604 10.5648 7.99979C10.5648 7.88354 10.501 7.77604 10.3998 7.71979L6.55979 5.50979C6.50229 5.47729 6.43604 5.46354 6.36979 5.46979C6.35979 5.46979 6.34979 5.46979 6.33979 5.46979ZM6.71979 6.34979L9.58979 7.99979L6.71979 9.64979V6.34979ZM1.91979 6.71979H3.19979V7.67979H1.91979V6.71979ZM12.7998 6.71979H14.0798V7.67979H12.7998V6.71979ZM1.91979 8.31979H3.19979V9.27979H1.91979V8.31979ZM12.7998 8.31979H14.0798V9.27979H12.7998V8.31979ZM1.91979 9.91979H3.19979V10.8798H1.91979V9.91979ZM12.7998 9.91979H14.0798V10.8798H12.7998V9.91979ZM1.91979 11.5198H3.19979V12.4798H1.91979V11.5198ZM12.7998 11.5198H14.0798V12.4798H12.7998V11.5198ZM1.91979 13.1198H3.19979V14.0798H1.91979V13.1198ZM12.7998 13.1198H14.0798V14.0798H12.7998V13.1198Z" fill="#1E467D"/>
</svg>
