<svg width="16" height="16" viewBox="0 0 16 16" fill="none" xmlns="http://www.w3.org/2000/svg">
<path d="M11.8398 1.27979C11.0705 1.27979 10.3475 1.57954 9.80354 2.12354L8.20354 3.72354C7.74114 4.18594 7.45531 4.77761 7.37979 5.41729C7.36667 5.52993 7.35979 5.64459 7.35979 5.75979C7.35979 6.19755 7.46016 6.61955 7.64416 7.00291L8.13229 6.51416C8.04685 6.2748 7.99979 6.02123 7.99979 5.75979C7.99979 5.16139 8.233 4.5994 8.65604 4.17604L10.256 2.57604C10.6794 2.153 11.2414 1.91979 11.8398 1.91979C12.4382 1.91979 13.0002 2.153 13.4235 2.57604C13.8469 2.99908 14.0798 3.56139 14.0798 4.15979C14.0798 4.75819 13.8466 5.32018 13.4235 5.74354L11.8235 7.34354C11.4002 7.76658 10.8382 7.99979 10.2398 7.99979C9.97835 7.99979 9.72477 7.95273 9.48541 7.86729L8.99666 8.35541C9.38002 8.53941 9.80203 8.63979 10.2398 8.63979C11.0091 8.63979 11.732 8.34004 12.276 7.79604L13.876 6.19604C14.42 5.65204 14.7198 4.92907 14.7198 4.15979C14.7198 3.39051 14.42 2.66754 13.876 2.12354C13.332 1.57954 12.6091 1.27979 11.8398 1.27979ZM9.91354 5.75666C9.8304 5.75914 9.75149 5.79388 9.69354 5.85354L5.85354 9.69354C5.82282 9.72302 5.7983 9.75834 5.78141 9.79742C5.76452 9.8365 5.7556 9.87856 5.75516 9.92113C5.75473 9.96371 5.7628 10.0059 5.77889 10.0454C5.79498 10.0848 5.81878 10.1206 5.84888 10.1507C5.87899 10.1808 5.9148 10.2046 5.95421 10.2207C5.99363 10.2368 6.03586 10.2448 6.07844 10.2444C6.12101 10.244 6.16307 10.2351 6.20215 10.2182C6.24123 10.2013 6.27655 10.1767 6.30604 10.146L10.146 6.30604C10.1923 6.26109 10.2239 6.20322 10.2366 6.14001C10.2494 6.07681 10.2428 6.01121 10.2177 5.95182C10.1926 5.89244 10.1501 5.84203 10.0958 5.8072C10.0415 5.77238 9.97799 5.75476 9.91354 5.75666V5.75666ZM5.75979 7.35979C4.99051 7.35979 4.26754 7.65954 3.72354 8.20354L2.12354 9.80354C1.62306 10.3037 1.32925 10.9556 1.28541 11.6554C1.28157 11.7165 1.27979 11.778 1.27979 11.8398C1.27979 12.6091 1.57954 13.332 2.12354 13.876C2.66754 14.42 3.39051 14.7198 4.15979 14.7198C4.92907 14.7198 5.65204 14.42 6.19604 13.876L7.79604 12.276C8.34004 11.732 8.63979 11.0091 8.63979 10.2398C8.63979 9.80203 8.53941 9.38002 8.35541 8.99666L7.86729 9.48541C7.95273 9.72477 7.99979 9.97835 7.99979 10.2398C7.99979 10.8382 7.76658 11.4002 7.34354 11.8235L5.74354 13.4235C5.32018 13.8466 4.75819 14.0798 4.15979 14.0798C3.56139 14.0798 2.9994 13.8466 2.57604 13.4235C2.15268 13.0005 1.91979 12.4382 1.91979 11.8398C1.91979 11.2414 2.153 10.6794 2.57604 10.256L4.17604 8.65604C4.5994 8.233 5.16139 7.99979 5.75979 7.99979C6.02123 7.99979 6.2748 8.04685 6.51416 8.13229L7.00291 7.64416C6.61955 7.46016 6.19755 7.35979 5.75979 7.35979Z" fill="#1E467D"/>
</svg>
