<svg width="16" height="16" viewBox="0 0 16 16" fill="none" xmlns="http://www.w3.org/2000/svg">
<path d="M0.549902 0.890058C0.401152 0.923809 0.296152 1.05756 0.299902 1.21006V12.6301C0.299902 13.9888 1.00615 14.7551 1.6999 15.1001C2.39365 15.4451 3.0799 15.4301 3.0799 15.4301H12.9199V15.4001C13.0737 15.4176 13.2399 15.4301 13.2399 15.4301C13.2399 15.4301 13.8549 15.4338 14.4699 15.0801C15.0699 14.7351 15.6612 14.0051 15.6899 12.7401C15.6937 12.7338 15.6974 12.7263 15.6999 12.7201C15.6999 12.7126 15.6999 12.7076 15.6999 12.7001C15.7012 12.6838 15.7012 12.6663 15.6999 12.6501V4.62006C15.6999 4.61631 15.6999 4.61381 15.6999 4.61006C15.6999 4.61006 15.7049 4.23506 15.5099 3.85006C15.3149 3.46506 14.8612 3.05006 14.1499 3.05006V3.04006H11.1199V3.68006H12.8999C12.8612 3.73506 12.8287 3.78506 12.7999 3.84006C12.6049 4.22131 12.5999 4.60006 12.5999 4.60006V12.3601C12.5987 12.4751 12.6587 12.5826 12.7587 12.6413C12.8587 12.6988 12.9812 12.6988 13.0812 12.6413C13.1812 12.5826 13.2412 12.4751 13.2399 12.3601V4.60006C13.2399 4.59131 13.2524 4.36006 13.3699 4.13006C13.4899 3.89631 13.6587 3.69006 14.1499 3.69006C14.6399 3.69006 14.8087 3.90131 14.9299 4.14006C15.0487 4.37506 15.0699 4.61131 15.0699 4.62006H15.0599V12.6501C15.0599 13.7888 14.6049 14.2688 14.1499 14.5301C13.6949 14.7913 13.2399 14.7901 13.2399 14.7901C13.2399 14.7901 12.6987 14.7826 12.1599 14.5101C11.6212 14.2376 11.0999 13.7588 11.0999 12.6301V1.21006C11.0999 1.03381 10.9562 0.890058 10.7799 0.890058H0.619902C0.596152 0.887559 0.573652 0.887559 0.549902 0.890058ZM0.939902 1.53006H10.4599V12.6301C10.4599 13.6826 10.9062 14.3713 11.4299 14.7901H3.0799C3.07615 14.7901 3.07365 14.7901 3.0699 14.7901C3.0699 14.7901 2.9324 14.7913 2.7299 14.7601C2.62865 14.7438 2.51615 14.7176 2.3899 14.6801C2.26365 14.6426 2.12365 14.5963 1.9899 14.5301C1.9224 14.4963 1.8549 14.4613 1.7899 14.4201C1.3324 14.1326 0.939902 13.6363 0.939902 12.6301V1.53006ZM2.2199 3.52006C2.04365 3.54506 1.9199 3.70881 1.9449 3.88506C1.9699 4.06131 2.13365 4.18506 2.3099 4.16006H8.6199C8.7349 4.16131 8.8424 4.10131 8.90115 4.00131C8.95865 3.90131 8.95865 3.77881 8.90115 3.67881C8.8424 3.57881 8.7349 3.51881 8.6199 3.52006H2.3099C2.2999 3.52006 2.2899 3.52006 2.2799 3.52006C2.2699 3.52006 2.2599 3.52006 2.2499 3.52006C2.2399 3.52006 2.2299 3.52006 2.2199 3.52006ZM2.2199 4.80006C2.04365 4.82506 1.9199 4.98881 1.9449 5.16506C1.9699 5.34131 2.13365 5.46506 2.3099 5.44006H8.6199C8.7349 5.44131 8.8424 5.38131 8.90115 5.28131C8.95865 5.18131 8.95865 5.05881 8.90115 4.95881C8.8424 4.85881 8.7349 4.79881 8.6199 4.80006H2.3099C2.2999 4.80006 2.2899 4.80006 2.2799 4.80006C2.2699 4.80006 2.2599 4.80006 2.2499 4.80006C2.2399 4.80006 2.2299 4.80006 2.2199 4.80006ZM2.3699 7.36006C2.19365 7.38506 2.0699 7.54881 2.0949 7.72506C2.1199 7.90131 2.28365 8.02506 2.4599 8.00006H4.6299C4.7449 8.00131 4.8524 7.94131 4.91115 7.84131C4.96865 7.74131 4.96865 7.61881 4.91115 7.51881C4.8524 7.41881 4.7449 7.35881 4.6299 7.36006H2.4599C2.4499 7.36006 2.4399 7.36006 2.4299 7.36006C2.4199 7.36006 2.4099 7.36006 2.3999 7.36006C2.3899 7.36006 2.3799 7.36006 2.3699 7.36006ZM6.0599 7.36006C5.88365 7.38506 5.7599 7.54881 5.7849 7.72506C5.8099 7.90131 5.97365 8.02506 6.1499 8.00006H8.6199C8.7349 8.00131 8.8424 7.94131 8.90115 7.84131C8.95865 7.74131 8.95865 7.61881 8.90115 7.51881C8.8424 7.41881 8.7349 7.35881 8.6199 7.36006H6.1499C6.1399 7.36006 6.1299 7.36006 6.1199 7.36006C6.1099 7.36006 6.0999 7.36006 6.0899 7.36006C6.0799 7.36006 6.0699 7.36006 6.0599 7.36006ZM2.3699 8.64006C2.19365 8.66506 2.0699 8.82881 2.0949 9.00506C2.1199 9.18131 2.28365 9.30506 2.4599 9.28006H4.6299C4.7449 9.28131 4.8524 9.22131 4.91115 9.12131C4.96865 9.02131 4.96865 8.89881 4.91115 8.79881C4.8524 8.69881 4.7449 8.63881 4.6299 8.64006H2.4599C2.4499 8.64006 2.4399 8.64006 2.4299 8.64006C2.4199 8.64006 2.4099 8.64006 2.3999 8.64006C2.3899 8.64006 2.3799 8.64006 2.3699 8.64006ZM6.0599 8.64006C5.88365 8.66506 5.7599 8.82881 5.7849 9.00506C5.8099 9.18131 5.97365 9.30506 6.1499 9.28006H8.6199C8.7349 9.28131 8.8424 9.22131 8.90115 9.12131C8.95865 9.02131 8.95865 8.89881 8.90115 8.79881C8.8424 8.69881 8.7349 8.63881 8.6199 8.64006H6.1499C6.1399 8.64006 6.1299 8.64006 6.1199 8.64006C6.1099 8.64006 6.0999 8.64006 6.0899 8.64006C6.0799 8.64006 6.0699 8.64006 6.0599 8.64006ZM6.0599 9.85006C5.88365 9.87506 5.7599 10.0388 5.7849 10.2151C5.8099 10.3913 5.97365 10.5151 6.1499 10.4901H8.6199C8.7349 10.4913 8.8424 10.4313 8.90115 10.3313C8.95865 10.2313 8.95865 10.1088 8.90115 10.0088C8.8424 9.90881 8.7349 9.84881 8.6199 9.85006H6.1499C6.1299 9.84756 6.1099 9.84756 6.0899 9.85006C6.0799 9.85006 6.0699 9.85006 6.0599 9.85006ZM2.3699 9.92006C2.19365 9.94506 2.0699 10.1088 2.0949 10.2851C2.1199 10.4613 2.28365 10.5851 2.4599 10.5601H4.6299C4.7449 10.5613 4.8524 10.5013 4.91115 10.4013C4.96865 10.3013 4.96865 10.1788 4.91115 10.0788C4.8524 9.97881 4.7449 9.91881 4.6299 9.92006H2.4599C2.4499 9.92006 2.4399 9.92006 2.4299 9.92006C2.4199 9.92006 2.4099 9.92006 2.3999 9.92006C2.3899 9.92006 2.3799 9.92006 2.3699 9.92006ZM6.0599 11.1301C5.88365 11.1551 5.7599 11.3188 5.7849 11.4951C5.8099 11.6713 5.97365 11.7951 6.1499 11.7701H8.6199C8.7349 11.7713 8.8424 11.7113 8.90115 11.6113C8.95865 11.5113 8.95865 11.3888 8.90115 11.2888C8.8424 11.1888 8.7349 11.1288 8.6199 11.1301H6.1499C6.1299 11.1276 6.1099 11.1276 6.0899 11.1301C6.0799 11.1301 6.0699 11.1301 6.0599 11.1301ZM2.3699 11.2001C2.19365 11.2251 2.0699 11.3888 2.0949 11.5651C2.1199 11.7413 2.28365 11.8651 2.4599 11.8401H4.6299C4.7449 11.8413 4.8524 11.7813 4.91115 11.6813C4.96865 11.5813 4.96865 11.4588 4.91115 11.3588C4.8524 11.2588 4.7449 11.1988 4.6299 11.2001H2.4599C2.4499 11.2001 2.4399 11.2001 2.4299 11.2001C2.4199 11.2001 2.4099 11.2001 2.3999 11.2001C2.3899 11.2001 2.3799 11.2001 2.3699 11.2001ZM6.0599 12.3301C5.88365 12.3551 5.7599 12.5188 5.7849 12.6951C5.8099 12.8713 5.97365 12.9951 6.1499 12.9701H8.6199C8.7349 12.9713 8.8424 12.9113 8.90115 12.8113C8.95865 12.7113 8.95865 12.5888 8.90115 12.4888C8.8424 12.3888 8.7349 12.3288 8.6199 12.3301H6.1499C6.1399 12.3301 6.1299 12.3301 6.1199 12.3301C6.1099 12.3301 6.0999 12.3301 6.0899 12.3301C6.0799 12.3301 6.0699 12.3301 6.0599 12.3301ZM2.3699 12.4801C2.19365 12.5051 2.0699 12.6688 2.0949 12.8451C2.1199 13.0213 2.28365 13.1451 2.4599 13.1201H4.6299C4.7449 13.1213 4.8524 13.0613 4.91115 12.9613C4.96865 12.8613 4.96865 12.7388 4.91115 12.6388C4.8524 12.5388 4.7449 12.4788 4.6299 12.4801H2.4599C2.4499 12.4801 2.4399 12.4801 2.4299 12.4801C2.4199 12.4801 2.4099 12.4801 2.3999 12.4801C2.3899 12.4801 2.3799 12.4801 2.3699 12.4801Z" fill="#1E467D"/>
</svg>
