<svg width="16" height="16" viewBox="0 0 16 16" fill="none" xmlns="http://www.w3.org/2000/svg">
<path d="M0.96 0.959961C0.43375 0.959961 0 1.39371 0 1.91996V15.04H16V1.91996C16 1.39371 15.5662 0.959961 15.04 0.959961H0.96ZM0.96 1.59996H15.04C15.2212 1.59996 15.36 1.73871 15.36 1.91996V2.87996H0.64V1.91996C0.64 1.73871 0.77875 1.59996 0.96 1.59996ZM0.64 3.51996H15.36V14.4H0.64V3.51996ZM9.25 4.78996C9.23625 4.79246 9.2225 4.79621 9.21 4.79996C9.105 4.82371 9.0175 4.89871 8.98 4.99996L6.1 12.04C6.03375 12.2062 6.11375 12.3937 6.28 12.46C6.44625 12.5262 6.63375 12.4462 6.7 12.28L9.58 5.23996C9.6275 5.13496 9.615 5.01121 9.54625 4.91871C9.47875 4.82496 9.365 4.77621 9.25 4.78996ZM5.1 6.70996C5.09 6.71246 5.08 6.71621 5.07 6.71996C5.03125 6.72621 4.99375 6.73996 4.96 6.75996L2.72 8.03996C2.61875 8.09621 2.555 8.20371 2.555 8.31996C2.555 8.43621 2.61875 8.54371 2.72 8.59996L4.96 9.87996C5.115 9.96871 5.31125 9.91496 5.4 9.75996C5.48875 9.60496 5.435 9.40871 5.28 9.31996L3.53 8.31996L5.28 7.31996C5.43 7.25621 5.50875 7.09121 5.4625 6.93496C5.41625 6.77871 5.26 6.68121 5.1 6.70996ZM10.82 6.71996C10.6837 6.74121 10.575 6.84746 10.5525 6.98371C10.53 7.11996 10.5975 7.25621 10.72 7.31996L12.47 8.31996L10.72 9.31996C10.565 9.40871 10.5112 9.60496 10.6 9.75996C10.6887 9.91496 10.885 9.96871 11.04 9.87996L13.28 8.59996C13.3812 8.54371 13.445 8.43621 13.445 8.31996C13.445 8.20371 13.3812 8.09621 13.28 8.03996L11.04 6.75996C10.9737 6.72121 10.8962 6.70621 10.82 6.71996Z" fill="#1E467D"/>
</svg>
