<svg xmlns="http://www.w3.org/2000/svg" viewBox="0 0 50 50">
    <defs>
    <style type="text/css"><![CDATA[
       path {
         fill: #9A9DA2;
       }
    ]]></style>
    </defs>
    <path d="M17 2c-3.3 0-6 2.7-6 6 0 1.984.977 3.75 2.469 4.844a8.038 8.038 0 00-2.156 1.562A6.886 6.886 0 009 14c-3.855 0-7 3.145-7 7 0 2.45 1.27 4.625 3.188 5.875C2.132 28.32 0 31.415 0 35v4.5a.998.998 0 00.406.813s.707.5 2.063.906C3.824 41.625 5.918 42 9 42s5.176-.375 6.531-.781a7.14 7.14 0 00.469-.157V45.5a.998.998 0 00.406.813s.707.5 2.063.906c1.355.406 3.449.781 6.531.781s5.176-.375 6.531-.781c1.356-.407 2.063-.907 2.063-.907A.998.998 0 0034 45.5v-4.438c.152.055.293.106.469.157 1.355.406 3.449.781 6.531.781s5.176-.375 6.531-.781c1.356-.407 2.063-.907 2.063-.907A.998.998 0 0050 39.5V35c0-3.586-2.133-6.68-5.188-8.125A7.018 7.018 0 0048 21c0-3.855-3.145-7-7-7-.871 0-1.7.176-2.469.469a8.06 8.06 0 00-2.187-1.625A6.006 6.006 0 0038.812 8c0-3.3-2.699-6-6-6-3.3 0-6 2.7-6 6 0 1.984.977 3.75 2.47 4.844-2.298 1.133-3.977 3.312-4.376 5.937-.398-2.629-2.074-4.808-4.375-5.937A6.006 6.006 0 0023 8c0-3.3-2.7-6-6-6zm0 2c2.223 0 4 1.777 4 4s-1.777 4-4 4-4-1.777-4-4 1.777-4 4-4zm15.813 0c2.222 0 4 1.777 4 4s-1.778 4-4 4c-2.223 0-4-1.777-4-4s1.777-4 4-4zM17 14c3.371 0 6 2.629 6 6v.313c-2.875.87-5 3.535-5 6.687 0 2.45 1.27 4.625 3.188 5.875A9.088 9.088 0 0018 35.406V35c0-3.586-2.133-6.68-5.188-8.125A7.018 7.018 0 0016 21c0-2.281-1.113-4.313-2.813-5.594A5.765 5.765 0 0117 14zm15.813 0c1.527 0 2.855.535 3.906 1.469A7.014 7.014 0 0034 21c0 2.45 1.27 4.625 3.188 5.875C34.133 28.32 32 31.415 32 35v.406a9.088 9.088 0 00-3.188-2.531A7.018 7.018 0 0032 27c0-3.223-2.21-5.945-5.188-6.75V20c0-3.371 2.63-6 6-6zM9 16c.777 0 1.5.188 2.156.5A4.978 4.978 0 0114 21c0 2.773-2.227 5-5 5s-5-2.227-5-5 2.227-5 5-5zm32 0c2.773 0 5 2.227 5 5s-2.227 5-5 5-5-2.227-5-5c0-1.848.988-3.445 2.469-4.313.008-.003.023.004.031 0a.991.991 0 00.406-.187c.035-.016.059-.047.094-.063a.466.466 0 00.063-.03A4.928 4.928 0 0141 16zm-16 6c2.773 0 5 2.227 5 5s-2.227 5-5 5-5-2.227-5-5 2.227-5 5-5zM9 28c3.855 0 7 3.145 7 7v3.844c-.148.09-.207.191-1.031.437C13.824 39.625 11.918 40 9 40s-4.824-.375-5.969-.719c-.824-.246-.883-.347-1.031-.437V35c0-3.855 3.145-7 7-7zm32 0c3.855 0 7 3.145 7 7v3.844c-.148.09-.207.191-1.031.437-1.145.344-3.051.719-5.969.719s-4.824-.375-5.969-.719c-.824-.246-.883-.347-1.031-.437V35c0-3.855 3.145-7 7-7zm-16 6c3.855 0 7 3.145 7 7v3.844c-.148.09-.207.191-1.031.437-1.145.344-3.051.719-5.969.719s-4.824-.375-5.969-.719c-.824-.246-.883-.347-1.031-.437V41c0-3.855 3.145-7 7-7z"></path>
</svg>
